<svg width="393" height="600" viewBox="0 0 393 600" fill="none" xmlns="http://www.w3.org/2000/svg">
<path d="M41.9753 515.567H84.4014V528.919H63.3201V539.898H82.5567V550.966H63.3201V562.649H84.4014V576H41.9753V515.567ZM92.8977 532.608H110.553V541.567C113.95 534.774 119.337 531.378 126.716 531.378C132.337 531.378 136.729 533.398 139.891 537.439C143.112 541.421 144.722 546.955 144.722 554.04V576H126.276V552.196C126.276 549.678 125.72 547.745 124.607 546.398C123.553 545.052 122.06 544.378 120.128 544.378C118.722 544.378 117.346 544.847 115.999 545.784C114.652 546.662 113.54 547.95 112.661 549.648C111.842 551.347 111.432 553.279 111.432 555.446V576H92.8977V532.608ZM175.951 576.703C171.091 576.703 166.757 575.736 162.951 573.804C159.203 571.813 156.275 569.119 154.167 565.723C152.059 562.268 151.005 558.374 151.005 554.04C151.005 549.59 152.088 545.637 154.255 542.182C156.422 538.727 159.35 536.063 163.039 534.189C166.728 532.315 170.827 531.378 175.336 531.378C179.67 531.378 183.359 532.344 186.404 534.277C189.508 536.151 191.821 538.727 193.343 542.006C194.866 545.227 195.627 548.858 195.627 552.898C195.627 553.953 195.568 554.714 195.451 555.182L169.1 558.608C169.802 560.658 170.944 562.151 172.525 563.088C174.107 563.966 176.185 564.405 178.762 564.405C182.744 564.405 187.048 563.381 191.674 561.331L193.87 573.101C188.424 575.502 182.451 576.703 175.951 576.703ZM182.012 547.54C181.075 543.851 178.85 542.006 175.336 542.006C173.228 542.006 171.559 542.797 170.329 544.378C169.1 545.959 168.456 548.009 168.397 550.527L182.012 547.54ZM202.01 532.608H220.544V541.567C221.89 538.112 223.706 535.565 225.99 533.925C228.332 532.227 231.055 531.378 234.159 531.378L236.706 545.696C231.143 545.696 227.044 546.311 224.409 547.54C221.832 548.711 220.544 550.585 220.544 553.162V576H202.01V532.608ZM266.069 596.115C262.849 596.115 259.774 595.793 256.846 595.149L258.252 582.149C260.536 582.5 262.644 582.676 264.576 582.676C268.207 582.676 270.959 581.592 272.833 579.426C274.707 577.318 275.819 573.745 276.171 568.709C272.716 573.57 267.446 576 260.36 576C256.495 576 252.923 575.004 249.644 573.013C246.423 571.022 243.846 568.329 241.914 564.932C240.04 561.536 239.103 557.817 239.103 553.777C239.103 549.678 240.04 545.93 241.914 542.534C243.788 539.079 246.335 536.356 249.556 534.365C252.835 532.374 256.407 531.378 260.272 531.378C263.844 531.378 266.948 532.315 269.583 534.189C272.277 536.004 274.033 538.464 274.853 541.567V531.378H293.387V564.845C293.387 575.092 291.045 582.851 286.36 588.122C281.734 593.451 274.97 596.115 266.069 596.115ZM266.069 562.824C268.412 562.824 270.432 562.004 272.13 560.365C273.828 558.667 274.736 556.676 274.853 554.392V553.689C274.736 551.464 273.799 549.502 272.042 547.804C270.344 546.106 268.353 545.256 266.069 545.256C263.668 545.256 261.619 546.135 259.921 547.892C258.222 549.59 257.373 551.639 257.373 554.04C257.373 556.441 258.222 558.52 259.921 560.277C261.619 561.975 263.668 562.824 266.069 562.824ZM325.651 596.115C322.431 596.115 319.356 595.793 316.428 595.149L317.834 582.149C320.118 582.5 322.226 582.676 324.158 582.676C327.613 582.676 330.248 581.622 332.064 579.514C333.879 577.464 334.816 573.57 334.874 567.831C331.829 573.687 326.94 576.615 320.205 576.615C314.525 576.615 310.075 574.624 306.854 570.642C303.692 566.601 302.111 561.038 302.111 553.953V531.993H320.557V556.676C320.557 558.667 321.113 560.335 322.226 561.682C323.338 562.971 324.861 563.615 326.793 563.615C328.784 563.615 330.395 562.766 331.624 561.067C332.913 559.369 333.557 557.144 333.557 554.392V531.993H352.091V564.845C352.091 575.034 349.807 582.793 345.239 588.122C340.672 593.451 334.142 596.115 325.651 596.115Z" fill="#3A3A3A"/>
<path d="M251.19 237.47L259.72 227.04L214.33 226.81H214.34L319.66 10.54H319.63H319.66L306.78 0L150.81 0.37L71.4697 223.88V223.89L84.3497 234.41L88.0197 224.07L84.3497 234.41L132.98 234.94L81.7797 443.69L81.7597 443.71L81.5397 444.62L94.6897 454.03L95.0997 454.32L95.1097 454.29L272.6 237.57L251.19 237.47Z" fill="#FFD800"/>
<path d="M272.6 237.57L259.72 227.04L251.19 237.47L272.6 237.57Z" fill="#FFD800"/>
<path d="M82 444.43L95 454.43L273 237.43L260 227.43L214 226.43L320 10.43L307 0.43L254.7 0L168 225.43L197 224.43L82 444.43Z" fill="#FFAA00"/>
<path d="M71 223.43L84 234.43H133L137 221.43L71 223.43Z" fill="#FFAA00"/>
</svg>
