<svg width="393" height="579" viewBox="0 0 393 579" fill="none" xmlns="http://www.w3.org/2000/svg">
<path d="M34.1265 494.567H53.8901V518.635H72.5998V494.567H92.4513V555H72.5998V531.284H53.8901V555H34.1265V494.567ZM125.398 555.703C120.772 555.703 116.644 554.883 113.013 553.243C109.441 551.604 106.659 549.29 104.668 546.304C102.677 543.317 101.682 539.921 101.682 536.115V510.993H119.777V535.851C119.777 537.784 120.304 539.306 121.358 540.419C122.47 541.473 123.846 542 125.486 542C127.067 542 128.356 541.473 129.351 540.419C130.405 539.306 130.932 537.784 130.932 535.851V510.993H148.676V536.115C148.676 539.98 147.68 543.405 145.689 546.392C143.757 549.32 141.034 551.604 137.52 553.243C134.006 554.883 129.966 555.703 125.398 555.703ZM157.19 511.608H174.845V520.567C176.836 517.112 179.091 514.565 181.609 512.925C184.185 511.227 187.23 510.378 190.744 510.378C194.199 510.378 197.186 511.256 199.704 513.013C202.28 514.711 204.213 517.024 205.501 519.952C209.249 513.569 214.695 510.378 221.839 510.378C225.235 510.378 228.193 511.286 230.711 513.101C233.287 514.916 235.278 517.551 236.684 521.006C238.089 524.403 238.792 528.414 238.792 533.04V555H220.258V533.04C220.258 530.054 219.731 527.799 218.677 526.277C217.681 524.754 216.276 523.993 214.46 523.993C212.469 523.993 210.742 524.842 209.278 526.54C207.873 528.239 207.17 530.288 207.17 532.689V555H188.812V533.04C188.812 530.054 188.285 527.799 187.23 526.277C186.235 524.754 184.8 523.993 182.926 523.993C180.935 523.993 179.237 524.842 177.832 526.54C176.426 528.239 175.724 530.288 175.724 532.689V555H157.19V511.608ZM266.757 555.703C262.95 555.703 259.378 554.707 256.04 552.716C252.761 550.667 250.126 547.914 248.135 544.459C246.144 540.946 245.148 537.052 245.148 532.777C245.148 528.561 246.144 524.754 248.135 521.358C250.126 517.903 252.79 515.209 256.128 513.277C259.466 511.344 263.009 510.378 266.757 510.378C269.802 510.378 272.613 511.227 275.189 512.925C277.824 514.624 279.815 517.171 281.162 520.567V510.378H299.608V555H281.162V546.831C278.234 552.745 273.432 555.703 266.757 555.703ZM272.466 541.824C274.809 541.824 276.8 541.004 278.439 539.365C280.137 537.667 281.045 535.676 281.162 533.392V532.689C281.045 530.347 280.108 528.356 278.351 526.716C276.653 525.076 274.691 524.256 272.466 524.256C270.007 524.256 267.899 525.135 266.142 526.892C264.444 528.59 263.594 530.639 263.594 533.04C263.594 535.5 264.473 537.579 266.23 539.277C267.986 540.975 270.065 541.824 272.466 541.824ZM308.505 511.608H326.161V520.567C329.557 513.774 334.945 510.378 342.323 510.378C347.945 510.378 352.337 512.398 355.499 516.439C358.72 520.421 360.33 525.955 360.33 533.04V555H341.884V531.196C341.884 528.678 341.328 526.745 340.215 525.398C339.161 524.052 337.668 523.378 335.735 523.378C334.33 523.378 332.954 523.847 331.607 524.784C330.26 525.662 329.147 526.95 328.269 528.648C327.449 530.347 327.039 532.279 327.039 534.446V555H308.505V511.608Z" fill="#3A3A3A"/>
<path d="M190.52 395.474V395.544C190.52 395.544 190.52 395.494 190.47 395.474H190.52Z" fill="#0082C7"/>
<path d="M361.629 151.704C344.789 215.704 342.869 290.064 324.629 353.704C322.739 365.874 317.249 399.214 295.989 415.634C289.319 420.794 270.329 423.634 232.399 429.284C215.999 431.744 207.809 433.004 203.329 433.004C177.569 434.804 141.329 418.844 131.679 411.644C93.8393 389.174 82.6793 365.524 55.8293 317.644C25.8293 270.724 -4.12066 255.354 27.4893 228.564C50.8293 220.774 63.6293 244.424 75.3393 262.164C83.5093 275.814 87.2493 290.054 96.5193 298.604C96.5193 298.604 96.5193 298.654 96.5193 298.604C119.889 314.164 116.519 280.344 120.569 256.904C122.387 241.727 123.222 226.448 123.069 211.164C122.579 169.214 122.989 74.1637 128.659 46.3637C130.239 29.2437 149.399 13.2537 161.769 35.1037C168.299 48.2237 166.679 72.2037 166.629 100.654C166.671 136.326 169.231 171.951 174.289 207.264C194.229 142.164 182.859 121.204 204.289 16.6937C204.439 -2.87634 234.429 -4.66634 243.999 8.32366V8.40366C244.239 8.74366 244.459 9.12366 244.679 9.51366C258.819 72.5637 208.609 167.424 240.749 212.064C240.774 212.084 240.801 212.101 240.829 212.114H240.929C241.14 212.278 241.39 212.386 241.654 212.426C241.919 212.466 242.189 212.438 242.439 212.344C242.439 212.344 242.439 212.344 242.439 212.344C242.932 212.166 243.363 211.85 243.679 211.434C255.909 172.134 258.759 144.154 270.429 86.9437C275.819 54.5837 275.359 40.1337 286.619 34.3137C293.619 30.4637 306.389 30.5037 311.429 38.7737C314.059 42.4737 315.329 47.7737 315.809 54.6637V54.7337C315.809 99.4937 301.539 168.244 297.149 232.864C314.279 240.644 318.039 172.054 331.149 135.524C332.989 128.724 340.149 115.594 351.829 118.404C362.069 123.204 363.919 142.084 361.629 151.704Z" fill="#00BFFF"/>
<path d="M361.629 151.704C344.789 215.704 342.869 290.064 324.629 353.704C322.749 365.874 317.259 399.214 295.999 415.634C289.329 420.794 270.339 423.634 232.409 429.284C215.999 431.744 207.809 433.004 203.329 433.004C177.559 434.804 141.329 418.854 131.679 411.644C125.563 408.043 119.696 404.034 114.119 399.644C150.119 404.644 197.279 396.294 209.119 356.374C223.579 307.644 285.119 285.694 308.709 265.374C330.839 246.254 342.109 173.764 342.949 119.374C345.695 117.98 348.852 117.625 351.839 118.374C362.069 123.204 363.919 142.084 361.629 151.704Z" fill="#0037FF"/>
</svg>
