<svg width="549" height="529" viewBox="0 0 549 529" fill="none" xmlns="http://www.w3.org/2000/svg">
<path d="M157.375 444.567H176.348V491.649H197.342V505H157.375V444.567ZM222.735 505.703C218.928 505.703 215.356 504.707 212.018 502.716C208.739 500.667 206.104 497.914 204.113 494.459C202.122 490.946 201.126 487.052 201.126 482.777C201.126 478.561 202.122 474.754 204.113 471.358C206.104 467.903 208.768 465.209 212.106 463.277C215.444 461.344 218.987 460.378 222.735 460.378C225.78 460.378 228.591 461.227 231.167 462.925C233.802 464.624 235.793 467.171 237.14 470.567V460.378H255.586V505H237.14V496.831C234.212 502.745 229.411 505.703 222.735 505.703ZM228.444 491.824C230.787 491.824 232.778 491.004 234.417 489.365C236.116 487.667 237.023 485.676 237.14 483.392V482.689C237.023 480.347 236.086 478.356 234.329 476.716C232.631 475.076 230.67 474.256 228.444 474.256C225.985 474.256 223.877 475.135 222.12 476.892C220.422 478.59 219.573 480.639 219.573 483.04C219.573 485.5 220.451 487.579 222.208 489.277C223.965 490.975 226.043 491.824 228.444 491.824ZM264.484 461.608H283.017V470.567C284.364 467.112 286.18 464.565 288.463 462.925C290.806 461.227 293.529 460.378 296.632 460.378L299.18 474.696C293.617 474.696 289.518 475.311 286.882 476.54C284.306 477.711 283.017 479.585 283.017 482.162V505H264.484V461.608ZM303.685 461.608H322.219V470.567C323.566 467.112 325.381 464.565 327.665 462.925C330.007 461.227 332.73 460.378 335.834 460.378L338.381 474.696C332.818 474.696 328.719 475.311 326.084 476.54C323.507 477.711 322.219 479.585 322.219 482.162V505H303.685V461.608ZM366.251 525.115C363.031 525.115 359.956 524.793 357.028 524.149L358.434 511.149C360.718 511.5 362.826 511.676 364.758 511.676C368.213 511.676 370.848 510.622 372.664 508.514C374.479 506.464 375.416 502.57 375.474 496.831C372.429 502.687 367.54 505.615 360.805 505.615C355.125 505.615 350.675 503.624 347.454 499.642C344.292 495.601 342.711 490.038 342.711 482.953V460.993H361.157V485.676C361.157 487.667 361.713 489.335 362.826 490.682C363.938 491.971 365.461 492.615 367.393 492.615C369.384 492.615 370.995 491.766 372.224 490.067C373.513 488.369 374.157 486.144 374.157 483.392V460.993H392.691V493.845C392.691 504.034 390.407 511.793 385.839 517.122C381.272 522.451 374.742 525.115 366.251 525.115Z" fill="#3A3A3A"/>
<path d="M395.87 274.55C395.87 274.55 398.69 262.08 446.55 264.98C470.77 281.87 482.03 302.71 493.86 324.67C505.69 346.63 515.25 372.37 538.86 369.07C562.47 365.77 536.6 375.91 536.6 375.91H491C491 375.91 496.07 360.14 487.06 348.32C478.05 336.5 463.41 293.13 448.2 286.38C432.99 279.63 416.78 282.24 395.87 274.55Z" fill="#1D9300"/>
<path d="M0 206.41C0 206.41 46.18 177.69 150.92 175.41C255.66 173.13 317.6 178.23 317.6 178.23L322.67 190.61L337.87 200.75C337.87 200.75 297.77 221.59 290.51 232.85C283.81 232.85 45.05 225.53 23.65 235.1C-1.41 237.74 1.97 226.1 27.87 213.7C53.77 201.3 0 206.41 0 206.41Z" fill="#1D9300"/>
<path d="M337.87 200.78C337.87 200.78 298.62 220.63 290.51 232.88C276.51 226.68 85.03 220.77 23.65 235.13C-37.73 249.49 64.38 235.51 64.38 235.51C64.38 235.51 59.88 242.26 45.05 250.51C30.22 258.76 138.15 279.23 138.15 279.23C138.15 279.23 244.58 295.23 253.97 295.94C263.36 296.65 378.42 293.12 407.14 275.67C435.86 258.22 456.69 237.94 461.19 232.87C465.69 227.8 443.19 186.69 461.19 151.22C441.49 153.47 438.11 157.41 438.11 157.41C438.11 157.41 401.5 152.34 385.17 169.8C374.47 169.8 317.6 170.36 317.6 178.25C317.6 186.14 326.61 200.22 337.87 200.78Z" fill="#1F4F00"/>
<path d="M461.19 151.23C461.19 151.23 484.19 140.3 503.9 145.4C515.9 148.49 526.64 157.4 530.46 178.26C530.46 209.26 518.07 237.95 495.83 251.46C480.34 249.4 461.06 239.2 461.19 232.88C461.32 226.56 447.12 170.37 461.19 151.23Z" fill="#1D9300"/>
<path d="M503.9 145.4C503.9 145.4 533.27 87.59 507.9 9.32001" stroke="#1F4F00" stroke-width="3" stroke-miterlimit="10" stroke-linecap="round"/>
<path d="M518.24 153.15C518.24 153.15 551.86 34.15 533.84 2" stroke="#1F4F00" stroke-width="3" stroke-miterlimit="10" stroke-linecap="round"/>
<path d="M317.6 178.26C318.297 174.916 318.297 171.464 317.6 168.12C316.47 162.21 380.11 168.68 383.48 168.12C384.22 168 391.61 163.43 394.75 162.21C422.9 151.21 422.75 158.69 438.95 156.29C441.49 181.07 439.23 183.61 451.06 220.49C402.91 249.4 391.93 253.71 391.93 253.71C391.93 253.71 347.52 198.71 337.87 200.78C333.33 197.75 317.6 188.39 317.6 178.26Z" fill="#FFD800"/>
<path d="M32.8496 375.91L50.4896 369.07H103.05C103.05 369.07 107.93 374.07 114.69 362.02C121.45 349.97 166.5 194.21 159.36 150.29C158.61 133.39 177.01 121.76 177.01 121.76C177.01 121.76 189.77 121.38 196.15 127.76C202.53 134.14 293 253.25 294.89 256.91C296.78 260.57 297.89 306.46 256.22 280.56C232.22 247.14 187.52 153.29 187.52 153.29C187.52 153.29 130.83 359.77 122.52 377.41C103.05 380.42 44.8596 381.17 32.8496 375.91Z" fill="#FFD800"/>
<path d="M365.46 272.3C365.46 272.3 299.02 252.4 274.61 264.41C261.1 286.94 240.83 357.89 237.82 358.64C234.81 359.39 217.93 377.04 202.54 378.16C187.15 379.28 210.79 388.68 252.09 381.16C258.85 369.06 268.49 298.57 281.5 285.8C294.51 273.03 325.67 277.54 330.93 280.55C336.19 283.56 357.93 286.93 368.09 277.55C378.25 268.17 365.46 272.3 365.46 272.3Z" fill="#FFAA00"/>
<path d="M459.22 165.59C459.22 165.59 455.56 232.32 514.97 197.68C521.97 182.76 514.13 164.74 494.97 147.28" stroke="#FFD800" stroke-width="0.75" stroke-miterlimit="10" stroke-linecap="round"/>
<path d="M508.22 237.67C503.15 232.6 503.99 223.02 506.81 220.49C509.63 217.96 515 197.68 515 197.68C515 197.68 520.92 195.15 527.11 186.42" stroke="#FFD800" stroke-width="0.75" stroke-miterlimit="10" stroke-linecap="round"/>
<path d="M483.44 198.5L480.06 201.6C480.06 201.6 468.8 193.43 473.86 182.17C478 169.5 478.37 164.99 483.44 163.59C488.51 162.19 496.67 165.84 497.23 171.19C497.79 176.54 499.77 188.64 497.23 194.56C494.69 200.48 487.66 201.91 483.44 198.5Z" fill="#FFD800"/>
</svg>
