<svg width="564" height="579" viewBox="0 0 564 579" fill="none" xmlns="http://www.w3.org/2000/svg">
<path d="M37.1394 507.919H24.5785V494.567H70.1667V507.919H57.6058V555H37.1394V507.919ZM94.8082 555.703C89.9478 555.703 85.6144 554.736 81.8081 552.804C78.0603 550.813 75.1323 548.119 73.0242 544.723C70.9161 541.268 69.862 537.374 69.862 533.04C69.862 528.59 70.9454 524.637 73.112 521.182C75.2787 517.727 78.2067 515.063 81.8959 513.189C85.5851 511.315 89.6843 510.378 94.1933 510.378C98.5267 510.378 102.216 511.344 105.261 513.277C108.365 515.151 110.678 517.727 112.2 521.006C113.723 524.227 114.484 527.858 114.484 531.898C114.484 532.953 114.425 533.714 114.308 534.182L87.9568 537.608C88.6595 539.658 89.8014 541.151 91.3825 542.088C92.9636 542.966 95.0424 543.405 97.619 543.405C101.601 543.405 105.905 542.381 110.531 540.331L112.727 552.101C107.281 554.502 101.308 555.703 94.8082 555.703ZM100.869 526.54C99.9321 522.851 97.7068 521.006 94.1933 521.006C92.0852 521.006 90.4162 521.797 89.1865 523.378C87.9568 524.959 87.3126 527.009 87.254 529.527L100.869 526.54ZM142.563 555.703C137.878 555.703 133.72 554.766 130.09 552.892C126.518 550.959 123.707 548.266 121.657 544.811C119.666 541.356 118.671 537.432 118.671 533.04C118.671 528.824 119.725 524.988 121.833 521.534C123.941 518.079 126.81 515.356 130.441 513.365C134.072 511.374 138.112 510.378 142.563 510.378C148.243 510.378 152.723 511.549 156.002 513.892L154.333 525.574C150.995 524.579 148.243 524.081 146.076 524.081C143.266 524.081 141.04 524.901 139.401 526.54C137.761 528.121 136.941 530.288 136.941 533.04C136.941 535.793 137.761 537.989 139.401 539.628C141.04 541.268 143.207 542.088 145.901 542.088C148.243 542.088 150.995 541.59 154.158 540.594L155.826 552.892C153.835 553.887 151.815 554.59 149.766 555C147.716 555.468 145.315 555.703 142.563 555.703ZM162.298 497.114L180.832 494.391V520.04C182.121 516.937 184.053 514.565 186.63 512.925C189.265 511.227 192.427 510.378 196.116 510.378C201.738 510.378 206.13 512.398 209.292 516.439C212.513 520.421 214.123 525.955 214.123 533.04V555H195.677V531.196C195.677 528.678 195.121 526.745 194.008 525.398C192.954 524.052 191.461 523.378 189.528 523.378C188.123 523.378 186.747 523.847 185.4 524.784C184.053 525.662 182.94 526.95 182.062 528.648C181.242 530.347 180.832 532.279 180.832 534.446V555H162.298V497.114ZM222.602 511.608H240.257V520.567C243.654 513.774 249.041 510.378 256.419 510.378C262.041 510.378 266.433 512.398 269.595 516.439C272.816 520.421 274.426 525.955 274.426 533.04V555H255.98V531.196C255.98 528.678 255.424 526.745 254.311 525.398C253.257 524.052 251.764 523.378 249.832 523.378C248.426 523.378 247.05 523.847 245.703 524.784C244.356 525.662 243.244 526.95 242.365 528.648C241.545 530.347 241.136 532.279 241.136 534.446V555H222.602V511.608ZM306.006 555.703C301.087 555.703 296.696 554.736 292.831 552.804C289.024 550.872 286.038 548.207 283.871 544.811C281.763 541.356 280.709 537.403 280.709 532.953C280.709 528.502 281.792 524.579 283.959 521.182C286.126 517.727 289.112 515.063 292.918 513.189C296.783 511.315 301.175 510.378 306.094 510.378C311.072 510.378 315.464 511.344 319.27 513.277C323.135 515.151 326.121 517.786 328.23 521.182C330.338 524.579 331.392 528.502 331.392 532.953C331.392 537.462 330.308 541.444 328.142 544.899C326.034 548.295 323.047 550.959 319.182 552.892C315.376 554.766 310.984 555.703 306.006 555.703ZM306.182 542.527C308.583 542.527 310.545 541.649 312.067 539.892C313.648 538.076 314.439 535.763 314.439 532.953C314.439 530.142 313.648 527.858 312.067 526.101C310.545 524.286 308.583 523.378 306.182 523.378C303.781 523.378 301.79 524.286 300.209 526.101C298.687 527.858 297.925 530.142 297.925 532.953C297.925 535.763 298.687 538.076 300.209 539.892C301.79 541.649 303.781 542.527 306.182 542.527ZM353.435 555.703C348.458 555.703 344.593 554.151 341.84 551.047C339.147 547.885 337.8 543.581 337.8 538.135V497.114L356.334 494.391V536.817C356.334 538.457 356.714 539.658 357.476 540.419C358.296 541.122 359.701 541.473 361.692 541.473C363.156 541.473 364.591 541.122 365.996 540.419L366.611 552.716C362.687 554.707 358.296 555.703 353.435 555.703ZM394.274 555.703C389.355 555.703 384.963 554.736 381.098 552.804C377.292 550.872 374.305 548.207 372.139 544.811C370.03 541.356 368.976 537.403 368.976 532.953C368.976 528.502 370.06 524.579 372.226 521.182C374.393 517.727 377.38 515.063 381.186 513.189C385.051 511.315 389.443 510.378 394.362 510.378C399.339 510.378 403.731 511.344 407.538 513.277C411.402 515.151 414.389 517.786 416.497 521.182C418.605 524.579 419.659 528.502 419.659 532.953C419.659 537.462 418.576 541.444 416.409 544.899C414.301 548.295 411.315 550.959 407.45 552.892C403.643 554.766 399.251 555.703 394.274 555.703ZM394.45 542.527C396.851 542.527 398.812 541.649 400.335 539.892C401.916 538.076 402.706 535.763 402.706 532.953C402.706 530.142 401.916 527.858 400.335 526.101C398.812 524.286 396.851 523.378 394.45 523.378C392.049 523.378 390.058 524.286 388.477 526.101C386.954 527.858 386.193 530.142 386.193 532.953C386.193 535.763 386.954 538.076 388.477 539.892C390.058 541.649 392.049 542.527 394.45 542.527ZM451.101 575.115C447.881 575.115 444.806 574.793 441.878 574.149L443.284 561.149C445.568 561.5 447.676 561.676 449.608 561.676C453.239 561.676 455.991 560.592 457.865 558.426C459.739 556.318 460.851 552.745 461.203 547.709C457.748 552.57 452.477 555 445.392 555C441.527 555 437.955 554.004 434.676 552.013C431.455 550.022 428.878 547.329 426.946 543.932C425.072 540.536 424.135 536.817 424.135 532.777C424.135 528.678 425.072 524.93 426.946 521.534C428.82 518.079 431.367 515.356 434.588 513.365C437.867 511.374 441.439 510.378 445.304 510.378C448.876 510.378 451.98 511.315 454.615 513.189C457.309 515.004 459.065 517.464 459.885 520.567V510.378H478.419V543.845C478.419 554.092 476.077 561.851 471.392 567.122C466.766 572.451 460.002 575.115 451.101 575.115ZM451.101 541.824C453.444 541.824 455.464 541.004 457.162 539.365C458.86 537.667 459.768 535.676 459.885 533.392V532.689C459.768 530.464 458.831 528.502 457.074 526.804C455.376 525.106 453.385 524.256 451.101 524.256C448.7 524.256 446.651 525.135 444.953 526.892C443.254 528.59 442.405 530.639 442.405 533.04C442.405 535.441 443.254 537.52 444.953 539.277C446.651 540.975 448.7 541.824 451.101 541.824ZM510.683 575.115C507.463 575.115 504.388 574.793 501.46 574.149L502.866 561.149C505.15 561.5 507.258 561.676 509.19 561.676C512.645 561.676 515.28 560.622 517.096 558.514C518.911 556.464 519.848 552.57 519.906 546.831C516.861 552.687 511.972 555.615 505.237 555.615C499.557 555.615 495.107 553.624 491.886 549.642C488.724 545.601 487.143 540.038 487.143 532.953V510.993H505.589V535.676C505.589 537.667 506.145 539.335 507.258 540.682C508.37 541.971 509.893 542.615 511.825 542.615C513.816 542.615 515.427 541.766 516.656 540.067C517.945 538.369 518.589 536.144 518.589 533.392V510.993H537.123V543.845C537.123 554.034 534.839 561.793 530.271 567.122C525.704 572.451 519.174 575.115 510.683 575.115Z" fill="#3A3A3A"/>
<path d="M281.5 93.5L392.5 18.5" stroke="#3A3A3A" stroke-width="7" stroke-miterlimit="10"/>
<path d="M173.5 18.5L281.5 93.5" stroke="#BBBBBB" stroke-width="8" stroke-miterlimit="10"/>
<path d="M127.77 188H106.73C92.5197 188 81 199.52 81 213.73V227.27C81 241.48 92.5197 253 106.73 253H127.77C141.98 253 153.5 241.48 153.5 227.27V213.73C153.5 199.52 141.98 188 127.77 188Z" fill="#BBBBBB"/>
<path d="M455.27 188H417.23C403.02 188 391.5 199.52 391.5 213.73V227.27C391.5 241.48 403.02 253 417.23 253H455.27C469.48 253 481 241.48 481 227.27V213.73C481 199.52 469.48 188 455.27 188Z" fill="#3A3A3A"/>
<path d="M409.31 90.19C421.67 92.808 432.755 99.5932 440.709 109.409C448.662 119.225 453.002 131.476 453 144.11V377.89C453 392.506 447.194 406.524 436.859 416.859C426.524 427.194 412.507 433 397.89 433H164.11C151.477 433.001 139.226 428.662 129.41 420.708C119.594 412.755 112.808 401.67 110.19 389.31" fill="#3A3A3A"/>
<path d="M409.31 90.19C405.555 89.3967 401.728 88.9979 397.89 89H164.11C149.494 89 135.476 94.8062 125.141 105.141C114.806 115.476 109 129.494 109 144.11V377.89C108.998 381.728 109.397 385.555 110.19 389.31C113.945 390.103 117.772 390.502 121.61 390.5H355.39C362.627 390.5 369.793 389.075 376.48 386.305C383.166 383.535 389.241 379.476 394.359 374.359C399.476 369.241 403.535 363.166 406.305 356.48C409.075 349.793 410.5 342.627 410.5 335.39V101.61C410.502 97.7723 410.103 93.9448 409.31 90.19Z" fill="#BBBBBB"/>
<path d="M173 38C183.493 38 192 29.4934 192 19C192 8.50659 183.493 0 173 0C162.507 0 154 8.50659 154 19C154 29.4934 162.507 38 173 38Z" fill="#BBBBBB"/>
<path d="M359.51 347.05C358.034 348.271 356.416 349.309 354.69 350.14L288 382.83C283.787 384.895 279.145 385.936 274.453 385.869C269.761 385.801 265.152 384.626 261 382.44L199.73 350.22C199.23 349.95 198.73 349.68 198.28 349.39C180.76 338.67 186.15 312.29 205.14 308.24C206.784 307.891 208.46 307.717 210.14 307.72L344.71 307.35C366.62 307.29 374.79 334.4 359.51 347.05Z" fill="#00BFFF"/>
<path d="M359.51 347.05C358.034 348.271 356.415 349.309 354.69 350.14L288 382.83L214.19 344C213.69 343.75 213.19 343.47 212.74 343.19C199.39 335.02 199.34 317.78 208.46 308.19C210.104 307.847 211.78 307.672 213.46 307.67L344.68 307.31C366.62 307.29 374.79 334.4 359.51 347.05Z" fill="#80DFFF"/>
<path d="M204.5 274.5C237.085 274.5 263.5 248.085 263.5 215.5C263.5 182.915 237.085 156.5 204.5 156.5C171.915 156.5 145.5 182.915 145.5 215.5C145.5 248.085 171.915 274.5 204.5 274.5Z" fill="#00BFFF"/>
<path d="M263.5 215.5C263.479 228.065 259.448 240.295 251.993 250.409C244.538 260.523 234.049 267.993 222.054 271.732C210.058 275.47 197.182 275.281 185.301 271.192C173.42 267.103 163.155 259.329 156 249C167.357 256.76 181.069 260.309 194.764 259.032C208.46 257.754 221.279 251.732 231.006 242.006C240.732 232.279 246.754 219.46 248.032 205.764C249.309 192.069 245.76 178.357 238 167C245.86 172.415 252.287 179.658 256.729 188.107C261.171 196.555 263.494 205.955 263.5 215.5V215.5Z" fill="#00BFFF"/>
<path d="M186.955 198.907C195.88 188.737 198.111 176.101 191.939 170.684C185.766 165.267 173.527 169.12 164.602 179.29C155.677 189.46 153.445 202.096 159.618 207.513C165.79 212.93 178.03 209.077 186.955 198.907Z" fill="#80DFFF"/>
<path d="M353 274C385.585 274 412 247.585 412 215C412 182.415 385.585 156 353 156C320.415 156 294 182.415 294 215C294 247.585 320.415 274 353 274Z" fill="#00BFFF"/>
<path d="M412 215C412 227.579 407.98 239.829 400.526 249.962C393.072 260.095 382.575 267.58 370.567 271.325C358.558 275.07 345.667 274.88 333.774 270.781C321.882 266.682 311.611 258.889 304.46 248.54C315.82 256.39 329.573 260.007 343.326 258.761C357.078 257.516 369.957 251.485 379.721 241.721C389.485 231.957 395.515 219.078 396.761 205.326C398.007 191.573 394.39 177.82 386.54 166.46C394.398 171.884 400.821 179.135 405.256 187.59C409.691 196.046 412.005 205.452 412 215V215Z" fill="#00BFFF"/>
<path d="M334.945 197.899C343.87 187.729 346.101 175.093 339.929 169.676C333.756 164.259 321.517 168.112 312.592 178.282C303.667 188.452 301.435 201.088 307.608 206.505C313.781 211.922 326.02 208.069 334.945 197.899Z" fill="#80DFFF"/>
<path d="M392 36C401.389 36 409 28.3888 409 19C409 9.61116 401.389 2 392 2C382.611 2 375 9.61116 375 19C375 28.3888 382.611 36 392 36Z" fill="#3A3A3A"/>
</svg>
