<svg width="642" height="516" viewBox="0 0 642 516" fill="none" xmlns="http://www.w3.org/2000/svg">
<path d="M213.844 493.405C205.588 493.405 198.619 491.883 192.939 488.838L197.331 475.223C203.362 477.39 208.75 478.473 213.493 478.473C216.07 478.473 217.944 478.18 219.115 477.594C220.344 476.95 220.959 476.013 220.959 474.784C220.959 473.964 220.637 473.261 219.993 472.676C219.349 472.031 218.061 471.329 216.128 470.567C214.196 469.806 211.297 468.869 207.432 467.757C202.689 466.351 199 464.067 196.365 460.905C193.729 457.684 192.412 453.995 192.412 449.837C192.412 443.396 194.52 438.536 198.736 435.256C203.011 431.918 208.75 430.249 215.953 430.249C219.7 430.249 223.39 430.659 227.02 431.479C230.651 432.24 233.872 433.382 236.682 434.905L231.939 448.169C228.66 447.056 225.79 446.265 223.331 445.797C220.93 445.27 218.588 445.006 216.304 445.006C212.439 445.006 210.507 446.06 210.507 448.169C210.507 449.223 211.121 450.13 212.351 450.892C213.639 451.594 216.245 452.502 220.169 453.615C226.318 455.254 230.973 457.772 234.135 461.169C237.297 464.507 238.878 468.518 238.878 473.203C238.878 479.703 236.77 484.709 232.554 488.223C228.338 491.678 222.101 493.405 213.844 493.405ZM245.8 448.608H264.334V456.25C267.145 450.335 271.917 447.378 278.651 447.378C282.575 447.378 286.176 448.374 289.456 450.365C292.793 452.297 295.399 454.991 297.273 458.446C299.206 461.901 300.172 465.766 300.172 470.04C300.172 474.315 299.176 478.18 297.185 481.635C295.253 485.09 292.618 487.813 289.28 489.804C286.001 491.736 282.487 492.703 278.739 492.703C272.064 492.703 267.262 489.745 264.334 483.831V503.419L245.8 506.933V448.608ZM273.118 478.824C275.519 478.824 277.568 477.946 279.266 476.189C280.965 474.432 281.814 472.383 281.814 470.04C281.814 467.581 280.935 465.502 279.178 463.804C277.48 462.106 275.46 461.256 273.118 461.256C270.717 461.256 268.667 462.106 266.969 463.804C265.271 465.443 264.422 467.405 264.422 469.689V470.04C264.422 472.5 265.271 474.579 266.969 476.277C268.726 477.975 270.775 478.824 273.118 478.824ZM326.287 492.703C322.481 492.703 318.909 491.707 315.571 489.716C312.292 487.667 309.657 484.914 307.666 481.459C305.675 477.946 304.679 474.052 304.679 469.777C304.679 465.561 305.675 461.754 307.666 458.358C309.657 454.903 312.321 452.209 315.659 450.277C318.997 448.344 322.54 447.378 326.287 447.378C329.332 447.378 332.143 448.227 334.72 449.925C337.355 451.624 339.346 454.171 340.693 457.567V447.378H359.139V492H340.693V483.831C337.765 489.745 332.963 492.703 326.287 492.703ZM331.997 478.824C334.339 478.824 336.33 478.004 337.97 476.365C339.668 474.667 340.576 472.676 340.693 470.392V469.689C340.576 467.347 339.639 465.356 337.882 463.716C336.184 462.076 334.222 461.256 331.997 461.256C329.537 461.256 327.429 462.135 325.673 463.892C323.974 465.59 323.125 467.639 323.125 470.04C323.125 472.5 324.004 474.579 325.76 476.277C327.517 477.975 329.596 478.824 331.997 478.824ZM389.732 492.703C385.048 492.703 380.89 491.766 377.259 489.892C373.687 487.959 370.876 485.266 368.827 481.811C366.836 478.356 365.84 474.432 365.84 470.04C365.84 465.824 366.894 461.988 369.002 458.534C371.11 455.079 373.98 452.356 377.611 450.365C381.241 448.374 385.282 447.378 389.732 447.378C395.412 447.378 399.892 448.549 403.172 450.892L401.503 462.574C398.165 461.579 395.412 461.081 393.246 461.081C390.435 461.081 388.21 461.901 386.57 463.54C384.93 465.121 384.111 467.288 384.111 470.04C384.111 472.793 384.93 474.989 386.57 476.628C388.21 478.268 390.376 479.088 393.07 479.088C395.412 479.088 398.165 478.59 401.327 477.594L402.996 489.892C401.005 490.887 398.985 491.59 396.935 492C394.885 492.468 392.485 492.703 389.732 492.703ZM431.703 492.703C426.843 492.703 422.51 491.736 418.703 489.804C414.955 487.813 412.027 485.119 409.919 481.723C407.811 478.268 406.757 474.374 406.757 470.04C406.757 465.59 407.841 461.637 410.007 458.182C412.174 454.727 415.102 452.063 418.791 450.189C422.48 448.315 426.579 447.378 431.088 447.378C435.422 447.378 439.111 448.344 442.156 450.277C445.26 452.151 447.573 454.727 449.095 458.006C450.618 461.227 451.379 464.858 451.379 468.898C451.379 469.953 451.321 470.714 451.203 471.182L424.852 474.608C425.555 476.658 426.697 478.151 428.278 479.088C429.859 479.966 431.938 480.405 434.514 480.405C438.496 480.405 442.8 479.381 447.426 477.331L449.622 489.101C444.176 491.502 438.203 492.703 431.703 492.703ZM437.764 463.54C436.827 459.851 434.602 458.006 431.088 458.006C428.98 458.006 427.311 458.797 426.082 460.378C424.852 461.959 424.208 464.009 424.149 466.527L437.764 463.54Z" fill="#3A3A3A"/>
<path d="M472.211 145C472.211 247.72 388.931 331 286.211 331C246.877 331.061 208.546 318.596 176.771 295.41C152.975 263.524 140.148 224.787 140.211 185C140.211 82.8302 223.041 0.000217938 325.211 0.000217938C366.601 -0.0634308 406.806 13.8161 439.341 39.4002C460.803 70.4281 472.272 107.273 472.211 145V145Z" fill="#00BFFF"/>
<path d="M325.211 370C427.384 370 510.211 287.173 510.211 185C510.211 82.8275 427.384 0.000213623 325.211 0.000213623C223.038 0.000213623 140.211 82.8275 140.211 185C140.211 287.173 223.038 370 325.211 370Z" fill="#FFAA00"/>
<path d="M472.211 145C472.211 247.72 388.931 331 286.211 331C246.877 331.061 208.546 318.596 176.771 295.41C152.975 263.524 140.148 224.787 140.211 185C140.211 82.8302 223.041 0.000217938 325.211 0.000217938C366.601 -0.0634308 406.806 13.8161 439.341 39.4002C460.803 70.4281 472.272 107.273 472.211 145V145Z" fill="#FFD800"/>
<path d="M640.271 83.3402C632.491 58.5602 565.271 55.8002 470.601 72.0702C476.541 79.6379 481.875 87.6628 486.551 96.0702C534.231 89.8102 565.761 92.0702 569.601 104.35C573.401 116.44 549.451 135.99 507.691 157.73C496.331 163.67 483.631 169.73 469.801 175.92C433.451 192.12 389.381 208.71 341.201 223.82C270.861 245.87 205.821 260.32 158.881 265.57C116.621 270.26 89.0413 267.51 85.4613 256.1C81.8813 244.69 103.461 226.24 141.731 205.69C140.602 195.249 140.375 184.73 141.051 174.25C49.7013 216.05 -7.22872 258.33 0.741276 283.79C8.66128 309.05 78.4013 311.43 175.901 294.09C176.671 293.97 177.431 293.83 178.201 293.69C227.361 284.82 283.451 270.99 342.201 252.6C384.881 239.21 425.061 224.6 461.261 209.67C478.391 202.61 494.641 195.46 509.841 188.29C595.361 148 648.001 107.89 640.271 83.3402Z" fill="#F14167"/>
<path d="M486.511 96.0002L486.561 96.0902C534.231 89.8302 565.761 92.0902 569.561 104.37C573.361 116.46 549.411 136.01 507.661 157.75C496.291 163.69 483.591 169.75 469.761 175.94C433.411 192.14 389.341 208.73 341.161 223.84C332.388 226.614 323.668 229.26 315.001 231.78C367.431 223.93 422.221 214.91 466.301 207.56C481.551 201.18 496.091 194.74 509.781 188.29C580.691 154.94 629.001 121.66 639.001 97.2702C579.741 81.4302 508.221 92.4402 486.511 96.0002Z" fill="#F14167"/>
<path d="M639.001 97.2702C628.921 121.66 580.661 154.94 509.771 188.27C496.081 194.72 481.541 201.16 466.291 207.54C422.211 214.89 367.421 223.91 314.991 231.76C323.665 229.254 332.401 226.617 341.201 223.85C389.381 208.74 433.451 192.15 469.801 175.95C483.631 169.8 496.331 163.7 507.701 157.76C549.451 136.02 573.401 116.47 569.601 104.38C565.761 92.1202 534.231 89.8402 486.601 96.1002L486.551 96.0102C508.221 92.4402 579.741 81.4302 639.001 97.2702Z" fill="#CD2633"/>
</svg>
