<svg width="435" height="581" viewBox="0 0 435 581" fill="none" xmlns="http://www.w3.org/2000/svg">
<path d="M38.6966 496.567H80.3321V509.919H57.5819V522.128H78.6632V533.196H57.5819V557H38.6966V496.567ZM109.118 557.703C104.199 557.703 99.8069 556.736 95.942 554.804C92.1356 552.872 89.1491 550.207 86.9824 546.811C84.8743 543.356 83.8202 539.403 83.8202 534.953C83.8202 530.502 84.9036 526.579 87.0703 523.182C89.237 519.727 92.2235 517.063 96.0298 515.189C99.8947 513.315 104.287 512.378 109.206 512.378C114.183 512.378 118.575 513.344 122.381 515.277C126.246 517.151 129.233 519.786 131.341 523.182C133.449 526.579 134.503 530.502 134.503 534.953C134.503 539.462 133.42 543.444 131.253 546.899C129.145 550.295 126.158 552.959 122.294 554.892C118.487 556.766 114.095 557.703 109.118 557.703ZM109.293 544.527C111.694 544.527 113.656 543.649 115.179 541.892C116.76 540.076 117.55 537.763 117.55 534.953C117.55 532.142 116.76 529.858 115.179 528.101C113.656 526.286 111.694 525.378 109.293 525.378C106.893 525.378 104.902 526.286 103.32 528.101C101.798 529.858 101.037 532.142 101.037 534.953C101.037 537.763 101.798 540.076 103.32 541.892C104.902 543.649 106.893 544.527 109.293 544.527ZM141.087 513.608H159.621V522.567C160.968 519.112 162.783 516.565 165.067 514.925C167.409 513.227 170.132 512.378 173.236 512.378L175.783 526.696C170.22 526.696 166.121 527.311 163.486 528.54C160.909 529.711 159.621 531.585 159.621 534.162V557H141.087V513.608ZM203.038 557.703C198.178 557.703 193.845 556.736 190.038 554.804C186.291 552.813 183.363 550.119 181.255 546.723C179.146 543.268 178.092 539.374 178.092 535.04C178.092 530.59 179.176 526.637 181.342 523.182C183.509 519.727 186.437 517.063 190.126 515.189C193.815 513.315 197.915 512.378 202.424 512.378C206.757 512.378 210.446 513.344 213.491 515.277C216.595 517.151 218.908 519.727 220.431 523.006C221.953 526.227 222.714 529.858 222.714 533.898C222.714 534.953 222.656 535.714 222.539 536.182L196.187 539.608C196.89 541.658 198.032 543.151 199.613 544.088C201.194 544.966 203.273 545.405 205.849 545.405C209.831 545.405 214.135 544.381 218.762 542.331L220.958 554.101C215.512 556.502 209.539 557.703 203.038 557.703ZM209.099 528.54C208.162 524.851 205.937 523.006 202.424 523.006C200.315 523.006 198.647 523.797 197.417 525.378C196.187 526.959 195.543 529.009 195.484 531.527L209.099 528.54ZM244.293 557.703C238.144 557.703 232.757 556.795 228.131 554.98L230.151 544.527C234.367 546.049 238.466 546.811 242.448 546.811C245.376 546.811 246.84 545.991 246.84 544.351C246.84 543.531 246.401 542.858 245.523 542.331C244.703 541.804 243.122 541.335 240.78 540.926C235.919 539.989 232.406 538.407 230.239 536.182C228.131 533.957 227.077 530.795 227.077 526.696C227.311 522.07 229.156 518.527 232.611 516.067C236.066 513.608 240.78 512.378 246.753 512.378C249.798 512.378 252.404 512.583 254.57 512.993C256.795 513.344 258.816 513.959 260.631 514.837L258.786 525.29C257.088 524.646 255.214 524.148 253.165 523.797C251.174 523.446 249.505 523.27 248.158 523.27C246.167 523.27 244.791 523.475 244.03 523.885C243.268 524.295 242.888 524.851 242.888 525.554C242.888 526.842 244.352 527.75 247.28 528.277C252.608 529.214 256.59 530.853 259.226 533.196C261.861 535.538 263.178 538.73 263.178 542.77C263.178 547.396 261.539 551.056 258.259 553.75C255.039 556.385 250.383 557.703 244.293 557.703ZM288.908 557.703C283.754 557.703 279.743 556.239 276.874 553.311C274.004 550.324 272.57 546.225 272.57 541.013V523.885H266.948V512.993H273.887L282.056 496.391H290.928V512.993H301.117V523.885H290.928V538.817C290.928 540.281 291.396 541.423 292.333 542.243C293.27 543.063 294.588 543.473 296.286 543.473C297.867 543.473 299.302 543.122 300.59 542.419L301.293 554.716C299.829 555.595 297.926 556.327 295.583 556.912C293.3 557.439 291.074 557.703 288.908 557.703ZM307.843 513.608H326.377V522.567C327.724 519.112 329.539 516.565 331.823 514.925C334.165 513.227 336.888 512.378 339.992 512.378L342.539 526.696C336.976 526.696 332.877 527.311 330.242 528.54C327.665 529.711 326.377 531.585 326.377 534.162V557H307.843V513.608ZM370.409 577.115C367.189 577.115 364.114 576.793 361.186 576.149L362.592 563.149C364.876 563.5 366.984 563.676 368.916 563.676C372.371 563.676 375.006 562.622 376.822 560.514C378.637 558.464 379.574 554.57 379.632 548.831C376.587 554.687 371.698 557.615 364.963 557.615C359.283 557.615 354.833 555.624 351.612 551.642C348.45 547.601 346.869 542.038 346.869 534.953V512.993H365.315V537.676C365.315 539.667 365.871 541.335 366.984 542.682C368.096 543.971 369.619 544.615 371.551 544.615C373.542 544.615 375.153 543.766 376.382 542.067C377.671 540.369 378.315 538.144 378.315 535.392V512.993H396.849V545.845C396.849 556.034 394.565 563.793 389.997 569.122C385.43 574.451 378.9 577.115 370.409 577.115Z" fill="#3A3A3A"/>
<path d="M249.28 347.88H184.55V434.7H249.28V347.88Z" fill="#F14167"/>
<path d="M249.15 347.07H207.7V434.48H249.15V347.07Z" fill="#CD2633"/>
<path d="M185.53 360.72H407.22L228.44 121.13L211.04 94.14L32.42 352.13L26 360.72H26.46L26 361.39L185.53 360.72Z" fill="#1D9300"/>
<path d="M107 121.64H326.82L225.26 0H216.91H209.58L107 121.64Z" fill="#1D9300"/>
<path d="M219.15 32.69L209.72 45.34L208.11 43.1L59.5596 246.57H378.75L219.15 32.69Z" fill="#1D9300"/>
<path d="M209.7 0.0700073L253.27 121.64L326.7 122.07L225.7 0.0700073H209.7Z" fill="#1F4F00"/>
<path d="M224.7 121.64L257.61 246.57L378.7 247.07L285.85 122.07L224.7 121.64Z" fill="#1F4F00"/>
<path d="M204.72 246.57L242.72 360.72L407.7 361.07L322.41 247.07L204.72 246.57Z" fill="#1F4F00"/>
</svg>
