<svg width="1280" height="720" viewBox="0 0 1280 720" fill="none" xmlns="http://www.w3.org/2000/svg">
<rect width="1280" height="720" fill="white"/>
<path d="M244.127 330H241.036L238.897 323.921H229.464L227.325 330H224.381L232.32 308.188H236.188L244.127 330ZM238.004 321.431L234.181 310.723L230.343 321.431H238.004ZM266.261 329.854C265.743 329.99 265.177 330.103 264.562 330.19C263.956 330.278 263.414 330.322 262.936 330.322C261.266 330.322 259.996 329.873 259.127 328.975C258.258 328.076 257.823 326.636 257.823 324.653V315.952H255.963V313.638H257.823V308.936H260.577V313.638H266.261V315.952H260.577V323.408C260.577 324.268 260.597 324.941 260.636 325.43C260.675 325.908 260.812 326.357 261.046 326.777C261.261 327.168 261.554 327.456 261.925 327.642C262.306 327.817 262.882 327.905 263.653 327.905C264.103 327.905 264.571 327.842 265.06 327.715C265.548 327.578 265.899 327.466 266.114 327.378H266.261V329.854ZM282.315 330H279.576V328.257C279.332 328.423 279 328.657 278.58 328.96C278.17 329.253 277.77 329.487 277.379 329.663C276.92 329.888 276.393 330.073 275.797 330.22C275.201 330.376 274.503 330.454 273.702 330.454C272.228 330.454 270.978 329.966 269.952 328.989C268.927 328.013 268.414 326.768 268.414 325.254C268.414 324.014 268.678 323.013 269.205 322.251C269.742 321.479 270.504 320.874 271.49 320.435C272.486 319.995 273.683 319.697 275.079 319.541C276.476 319.385 277.975 319.268 279.576 319.189V318.765C279.576 318.14 279.464 317.622 279.239 317.212C279.024 316.802 278.712 316.479 278.302 316.245C277.911 316.021 277.442 315.869 276.896 315.791C276.349 315.713 275.777 315.674 275.182 315.674C274.459 315.674 273.653 315.771 272.765 315.967C271.876 316.152 270.958 316.426 270.011 316.787H269.864V313.989C270.401 313.843 271.178 313.682 272.193 313.506C273.209 313.33 274.21 313.242 275.196 313.242C276.349 313.242 277.35 313.34 278.199 313.535C279.059 313.721 279.801 314.043 280.426 314.502C281.041 314.951 281.51 315.532 281.832 316.245C282.154 316.958 282.315 317.842 282.315 318.896V330ZM279.576 325.972V321.416C278.736 321.465 277.745 321.538 276.603 321.636C275.47 321.733 274.571 321.875 273.907 322.061C273.116 322.285 272.477 322.637 271.988 323.115C271.5 323.584 271.256 324.233 271.256 325.063C271.256 326.001 271.539 326.709 272.105 327.188C272.672 327.656 273.536 327.891 274.698 327.891C275.665 327.891 276.549 327.705 277.35 327.334C278.15 326.953 278.893 326.499 279.576 325.972ZM302.018 321.694C302.018 323.062 301.822 324.292 301.432 325.386C301.051 326.479 300.533 327.397 299.879 328.14C299.186 328.911 298.424 329.492 297.594 329.883C296.764 330.264 295.851 330.454 294.854 330.454C293.927 330.454 293.116 330.342 292.423 330.117C291.729 329.902 291.046 329.609 290.372 329.238L290.196 330H287.618V307.207H290.372V315.352C291.144 314.717 291.964 314.199 292.833 313.799C293.702 313.389 294.679 313.184 295.763 313.184C297.696 313.184 299.22 313.926 300.333 315.41C301.456 316.895 302.018 318.989 302.018 321.694ZM299.176 321.768C299.176 319.814 298.854 318.335 298.209 317.329C297.564 316.313 296.524 315.806 295.089 315.806C294.288 315.806 293.478 315.981 292.657 316.333C291.837 316.675 291.075 317.119 290.372 317.666V327.041C291.153 327.393 291.822 327.637 292.379 327.773C292.945 327.91 293.585 327.979 294.298 327.979C295.821 327.979 297.013 327.48 297.872 326.484C298.741 325.479 299.176 323.906 299.176 321.768ZM309.093 330H306.339V307.207H309.093V330ZM328.238 322.104H316.183C316.183 323.11 316.334 323.989 316.637 324.741C316.939 325.483 317.354 326.094 317.882 326.572C318.39 327.041 318.99 327.393 319.684 327.627C320.387 327.861 321.158 327.979 321.998 327.979C323.111 327.979 324.229 327.759 325.353 327.319C326.485 326.87 327.291 326.431 327.77 326.001H327.916V329.004C326.988 329.395 326.041 329.722 325.074 329.985C324.107 330.249 323.092 330.381 322.027 330.381C319.312 330.381 317.193 329.648 315.67 328.184C314.146 326.709 313.385 324.619 313.385 321.914C313.385 319.238 314.112 317.114 315.567 315.542C317.032 313.97 318.956 313.184 321.339 313.184C323.546 313.184 325.245 313.828 326.437 315.117C327.638 316.406 328.238 318.237 328.238 320.61V322.104ZM325.558 319.995C325.548 318.55 325.182 317.432 324.459 316.641C323.746 315.85 322.657 315.454 321.192 315.454C319.718 315.454 318.541 315.889 317.662 316.758C316.793 317.627 316.3 318.706 316.183 319.995H325.558ZM357.359 321.694C357.359 323.062 357.164 324.292 356.773 325.386C356.393 326.479 355.875 327.397 355.221 328.14C354.527 328.911 353.766 329.492 352.936 329.883C352.105 330.264 351.192 330.454 350.196 330.454C349.269 330.454 348.458 330.342 347.765 330.117C347.071 329.902 346.388 329.609 345.714 329.238L345.538 330H342.96V307.207H345.714V315.352C346.485 314.717 347.306 314.199 348.175 313.799C349.044 313.389 350.021 313.184 351.104 313.184C353.038 313.184 354.562 313.926 355.675 315.41C356.798 316.895 357.359 318.989 357.359 321.694ZM354.518 321.768C354.518 319.814 354.195 318.335 353.551 317.329C352.906 316.313 351.866 315.806 350.431 315.806C349.63 315.806 348.819 315.981 347.999 316.333C347.179 316.675 346.417 317.119 345.714 317.666V327.041C346.495 327.393 347.164 327.637 347.721 327.773C348.287 327.91 348.927 327.979 349.64 327.979C351.163 327.979 352.354 327.48 353.214 326.484C354.083 325.479 354.518 323.906 354.518 321.768ZM371.861 316.641H371.715C371.305 316.543 370.904 316.475 370.514 316.436C370.133 316.387 369.679 316.362 369.151 316.362C368.302 316.362 367.481 316.553 366.69 316.934C365.899 317.305 365.138 317.788 364.405 318.384V330H361.651V313.638H364.405V316.055C365.499 315.176 366.461 314.556 367.291 314.194C368.131 313.823 368.985 313.638 369.854 313.638C370.333 313.638 370.68 313.652 370.895 313.682C371.109 313.701 371.432 313.745 371.861 313.813V316.641ZM377.413 310.898H374.308V308.042H377.413V310.898ZM377.237 330H374.483V313.638H377.237V330ZM396.368 330H393.614V320.684C393.614 319.932 393.57 319.229 393.482 318.574C393.395 317.91 393.233 317.393 392.999 317.021C392.755 316.611 392.403 316.309 391.944 316.113C391.485 315.908 390.89 315.806 390.157 315.806C389.405 315.806 388.619 315.991 387.799 316.362C386.979 316.733 386.192 317.207 385.44 317.783V330H382.687V313.638H385.44V315.454C386.3 314.741 387.188 314.185 388.106 313.784C389.024 313.384 389.967 313.184 390.934 313.184C392.701 313.184 394.049 313.716 394.977 314.78C395.904 315.845 396.368 317.378 396.368 319.38V330ZM414.942 328.14C414.942 330.913 414.312 332.949 413.053 334.248C411.793 335.547 409.854 336.196 407.237 336.196C406.368 336.196 405.519 336.133 404.688 336.006C403.868 335.889 403.058 335.718 402.257 335.493V332.681H402.403C402.853 332.856 403.565 333.071 404.542 333.325C405.519 333.589 406.495 333.721 407.472 333.721C408.409 333.721 409.186 333.608 409.801 333.384C410.416 333.159 410.895 332.847 411.236 332.446C411.578 332.065 411.822 331.606 411.969 331.069C412.115 330.532 412.188 329.932 412.188 329.268V327.773C411.358 328.438 410.562 328.936 409.801 329.268C409.049 329.59 408.087 329.751 406.915 329.751C404.962 329.751 403.409 329.048 402.257 327.642C401.114 326.226 400.543 324.233 400.543 321.665C400.543 320.259 400.738 319.048 401.129 318.032C401.529 317.007 402.071 316.123 402.755 315.381C403.39 314.688 404.161 314.15 405.069 313.77C405.978 313.379 406.881 313.184 407.779 313.184C408.727 313.184 409.518 313.281 410.152 313.477C410.797 313.662 411.476 313.95 412.188 314.341L412.364 313.638H414.942V328.14ZM412.188 325.503V316.582C411.456 316.25 410.772 316.016 410.138 315.879C409.513 315.732 408.888 315.659 408.263 315.659C406.749 315.659 405.558 316.167 404.688 317.183C403.819 318.198 403.385 319.673 403.385 321.606C403.385 323.442 403.707 324.834 404.352 325.781C404.996 326.729 406.065 327.202 407.56 327.202C408.36 327.202 409.161 327.051 409.962 326.748C410.772 326.436 411.515 326.021 412.188 325.503ZM432.052 325.283C432.052 326.777 431.432 328.003 430.191 328.96C428.961 329.917 427.276 330.396 425.138 330.396C423.927 330.396 422.813 330.254 421.798 329.971C420.792 329.678 419.947 329.36 419.264 329.019V325.928H419.41C420.279 326.582 421.246 327.104 422.311 327.495C423.375 327.876 424.396 328.066 425.372 328.066C426.583 328.066 427.53 327.871 428.214 327.48C428.897 327.09 429.239 326.475 429.239 325.635C429.239 324.99 429.054 324.502 428.683 324.17C428.312 323.838 427.599 323.555 426.544 323.32C426.153 323.232 425.641 323.13 425.006 323.013C424.381 322.896 423.81 322.769 423.292 322.632C421.856 322.251 420.836 321.694 420.23 320.962C419.635 320.22 419.337 319.312 419.337 318.237C419.337 317.563 419.474 316.929 419.747 316.333C420.03 315.737 420.455 315.205 421.021 314.736C421.568 314.277 422.262 313.916 423.102 313.652C423.951 313.379 424.898 313.242 425.943 313.242C426.92 313.242 427.906 313.364 428.902 313.608C429.908 313.843 430.743 314.131 431.407 314.473V317.417H431.261C430.558 316.899 429.703 316.465 428.697 316.113C427.691 315.752 426.705 315.571 425.738 315.571C424.732 315.571 423.883 315.767 423.189 316.157C422.496 316.538 422.149 317.109 422.149 317.871C422.149 318.545 422.359 319.053 422.779 319.395C423.189 319.736 423.854 320.015 424.771 320.229C425.279 320.347 425.846 320.464 426.471 320.581C427.105 320.698 427.633 320.806 428.053 320.903C429.332 321.196 430.318 321.699 431.012 322.412C431.705 323.135 432.052 324.092 432.052 325.283ZM460.953 321.621C460.953 322.949 460.763 324.165 460.382 325.269C460.001 326.362 459.464 327.29 458.771 328.052C458.126 328.774 457.364 329.336 456.485 329.736C455.616 330.127 454.693 330.322 453.717 330.322C452.867 330.322 452.096 330.229 451.402 330.044C450.719 329.858 450.021 329.57 449.308 329.18V336.035H446.554V313.638H449.308V315.352C450.04 314.736 450.86 314.224 451.769 313.813C452.687 313.394 453.663 313.184 454.698 313.184C456.671 313.184 458.204 313.931 459.298 315.425C460.401 316.909 460.953 318.975 460.953 321.621ZM458.111 321.694C458.111 319.722 457.774 318.247 457.101 317.271C456.427 316.294 455.392 315.806 453.995 315.806C453.204 315.806 452.408 315.977 451.607 316.318C450.807 316.66 450.04 317.109 449.308 317.666V326.938C450.089 327.29 450.758 327.529 451.314 327.656C451.881 327.783 452.521 327.847 453.233 327.847C454.767 327.847 455.963 327.329 456.822 326.294C457.682 325.259 458.111 323.726 458.111 321.694ZM478.941 322.104H466.886C466.886 323.11 467.037 323.989 467.34 324.741C467.643 325.483 468.058 326.094 468.585 326.572C469.093 327.041 469.693 327.393 470.387 327.627C471.09 327.861 471.861 327.979 472.701 327.979C473.814 327.979 474.933 327.759 476.056 327.319C477.188 326.87 477.994 326.431 478.473 326.001H478.619V329.004C477.691 329.395 476.744 329.722 475.777 329.985C474.811 330.249 473.795 330.381 472.73 330.381C470.016 330.381 467.896 329.648 466.373 328.184C464.85 326.709 464.088 324.619 464.088 321.914C464.088 319.238 464.815 317.114 466.271 315.542C467.735 313.97 469.659 313.184 472.042 313.184C474.249 313.184 475.948 313.828 477.14 315.117C478.341 316.406 478.941 318.237 478.941 320.61V322.104ZM476.261 319.995C476.251 318.55 475.885 317.432 475.162 316.641C474.449 315.85 473.36 315.454 471.896 315.454C470.421 315.454 469.244 315.889 468.365 316.758C467.496 317.627 467.003 318.706 466.886 319.995H476.261ZM497.062 321.826C497.062 324.492 496.378 326.597 495.011 328.14C493.644 329.683 491.812 330.454 489.518 330.454C487.203 330.454 485.362 329.683 483.995 328.14C482.638 326.597 481.959 324.492 481.959 321.826C481.959 319.16 482.638 317.056 483.995 315.513C485.362 313.96 487.203 313.184 489.518 313.184C491.812 313.184 493.644 313.96 495.011 315.513C496.378 317.056 497.062 319.16 497.062 321.826ZM494.22 321.826C494.22 319.707 493.805 318.135 492.975 317.109C492.145 316.074 490.992 315.557 489.518 315.557C488.023 315.557 486.861 316.074 486.031 317.109C485.211 318.135 484.801 319.707 484.801 321.826C484.801 323.877 485.216 325.435 486.046 326.499C486.876 327.554 488.033 328.081 489.518 328.081C490.982 328.081 492.13 327.559 492.96 326.514C493.8 325.459 494.22 323.896 494.22 321.826ZM515.738 321.621C515.738 322.949 515.548 324.165 515.167 325.269C514.786 326.362 514.249 327.29 513.556 328.052C512.911 328.774 512.149 329.336 511.271 329.736C510.401 330.127 509.479 330.322 508.502 330.322C507.652 330.322 506.881 330.229 506.188 330.044C505.504 329.858 504.806 329.57 504.093 329.18V336.035H501.339V313.638H504.093V315.352C504.825 314.736 505.646 314.224 506.554 313.813C507.472 313.394 508.448 313.184 509.483 313.184C511.456 313.184 512.989 313.931 514.083 315.425C515.187 316.909 515.738 318.975 515.738 321.621ZM512.896 321.694C512.896 319.722 512.56 318.247 511.886 317.271C511.212 316.294 510.177 315.806 508.78 315.806C507.989 315.806 507.193 315.977 506.393 316.318C505.592 316.66 504.825 317.109 504.093 317.666V326.938C504.874 327.29 505.543 327.529 506.1 327.656C506.666 327.783 507.306 327.847 508.019 327.847C509.552 327.847 510.748 327.329 511.607 326.294C512.467 325.259 512.896 323.726 512.896 321.694ZM522.813 330H520.06V307.207H522.813V330ZM541.959 322.104H529.903C529.903 323.11 530.055 323.989 530.357 324.741C530.66 325.483 531.075 326.094 531.603 326.572C532.11 327.041 532.711 327.393 533.404 327.627C534.107 327.861 534.879 327.979 535.719 327.979C536.832 327.979 537.95 327.759 539.073 327.319C540.206 326.87 541.012 326.431 541.49 326.001H541.637V329.004C540.709 329.395 539.762 329.722 538.795 329.985C537.828 330.249 536.812 330.381 535.748 330.381C533.033 330.381 530.914 329.648 529.391 328.184C527.867 326.709 527.105 324.619 527.105 321.914C527.105 319.238 527.833 317.114 529.288 315.542C530.753 313.97 532.677 313.184 535.06 313.184C537.267 313.184 538.966 313.828 540.157 315.117C541.358 316.406 541.959 318.237 541.959 320.61V322.104ZM539.278 319.995C539.269 318.55 538.902 317.432 538.18 316.641C537.467 315.85 536.378 315.454 534.913 315.454C533.438 315.454 532.262 315.889 531.383 316.758C530.514 317.627 530.021 318.706 529.903 319.995H539.278ZM569.396 330H566.656V328.257C566.412 328.423 566.08 328.657 565.66 328.96C565.25 329.253 564.85 329.487 564.459 329.663C564 329.888 563.473 330.073 562.877 330.22C562.281 330.376 561.583 330.454 560.782 330.454C559.308 330.454 558.058 329.966 557.032 328.989C556.007 328.013 555.494 326.768 555.494 325.254C555.494 324.014 555.758 323.013 556.285 322.251C556.822 321.479 557.584 320.874 558.57 320.435C559.566 319.995 560.763 319.697 562.159 319.541C563.556 319.385 565.055 319.268 566.656 319.189V318.765C566.656 318.14 566.544 317.622 566.319 317.212C566.104 316.802 565.792 316.479 565.382 316.245C564.991 316.021 564.522 315.869 563.976 315.791C563.429 315.713 562.857 315.674 562.262 315.674C561.539 315.674 560.733 315.771 559.845 315.967C558.956 316.152 558.038 316.426 557.091 316.787H556.944V313.989C557.481 313.843 558.258 313.682 559.273 313.506C560.289 313.33 561.29 313.242 562.276 313.242C563.429 313.242 564.43 313.34 565.279 313.535C566.139 313.721 566.881 314.043 567.506 314.502C568.121 314.951 568.59 315.532 568.912 316.245C569.234 316.958 569.396 317.842 569.396 318.896V330ZM566.656 325.972V321.416C565.816 321.465 564.825 321.538 563.683 321.636C562.55 321.733 561.651 321.875 560.987 322.061C560.196 322.285 559.557 322.637 559.068 323.115C558.58 323.584 558.336 324.233 558.336 325.063C558.336 326.001 558.619 326.709 559.186 327.188C559.752 327.656 560.616 327.891 561.778 327.891C562.745 327.891 563.629 327.705 564.43 327.334C565.23 326.953 565.973 326.499 566.656 325.972ZM588.38 330H585.626V320.684C585.626 319.932 585.582 319.229 585.494 318.574C585.406 317.91 585.245 317.393 585.011 317.021C584.767 316.611 584.415 316.309 583.956 316.113C583.497 315.908 582.901 315.806 582.169 315.806C581.417 315.806 580.631 315.991 579.811 316.362C578.99 316.733 578.204 317.207 577.452 317.783V330H574.698V313.638H577.452V315.454C578.312 314.741 579.2 314.185 580.118 313.784C581.036 313.384 581.979 313.184 582.945 313.184C584.713 313.184 586.061 313.716 586.988 314.78C587.916 315.845 588.38 317.378 588.38 319.38V330ZM606.954 330H604.2V328.286C603.409 328.97 602.584 329.502 601.725 329.883C600.865 330.264 599.933 330.454 598.927 330.454C596.974 330.454 595.421 329.702 594.269 328.198C593.126 326.694 592.555 324.609 592.555 321.943C592.555 320.557 592.75 319.321 593.141 318.237C593.541 317.153 594.078 316.23 594.752 315.469C595.416 314.727 596.188 314.16 597.066 313.77C597.955 313.379 598.873 313.184 599.82 313.184C600.68 313.184 601.441 313.276 602.105 313.462C602.77 313.638 603.468 313.916 604.2 314.297V307.207H606.954V330ZM604.2 325.972V316.582C603.458 316.25 602.794 316.021 602.208 315.894C601.622 315.767 600.982 315.703 600.289 315.703C598.746 315.703 597.545 316.24 596.686 317.314C595.826 318.389 595.396 319.912 595.396 321.885C595.396 323.828 595.729 325.308 596.393 326.323C597.057 327.329 598.121 327.832 599.586 327.832C600.367 327.832 601.158 327.661 601.959 327.319C602.76 326.968 603.507 326.519 604.2 325.972ZM625.88 310.898H622.774V308.042H625.88V310.898ZM625.704 330H622.95V313.638H625.704V330ZM644.425 330H641.671V328.286C640.88 328.97 640.055 329.502 639.195 329.883C638.336 330.264 637.403 330.454 636.397 330.454C634.444 330.454 632.892 329.702 631.739 328.198C630.597 326.694 630.025 324.609 630.025 321.943C630.025 320.557 630.221 319.321 630.611 318.237C631.012 317.153 631.549 316.23 632.223 315.469C632.887 314.727 633.658 314.16 634.537 313.77C635.426 313.379 636.344 313.184 637.291 313.184C638.15 313.184 638.912 313.276 639.576 313.462C640.24 313.638 640.938 313.916 641.671 314.297V307.207H644.425V330ZM641.671 325.972V316.582C640.929 316.25 640.265 316.021 639.679 315.894C639.093 315.767 638.453 315.703 637.76 315.703C636.217 315.703 635.016 316.24 634.156 317.314C633.297 318.389 632.867 319.912 632.867 321.885C632.867 323.828 633.199 325.308 633.863 326.323C634.527 327.329 635.592 327.832 637.057 327.832C637.838 327.832 638.629 327.661 639.43 327.319C640.23 326.968 640.978 326.519 641.671 325.972ZM663.541 322.104H651.485C651.485 323.11 651.637 323.989 651.939 324.741C652.242 325.483 652.657 326.094 653.185 326.572C653.692 327.041 654.293 327.393 654.986 327.627C655.689 327.861 656.461 327.979 657.301 327.979C658.414 327.979 659.532 327.759 660.655 327.319C661.788 326.87 662.594 326.431 663.072 326.001H663.219V329.004C662.291 329.395 661.344 329.722 660.377 329.985C659.41 330.249 658.395 330.381 657.33 330.381C654.615 330.381 652.496 329.648 650.973 328.184C649.449 326.709 648.688 324.619 648.688 321.914C648.688 319.238 649.415 317.114 650.87 315.542C652.335 313.97 654.259 313.184 656.642 313.184C658.849 313.184 660.548 313.828 661.739 315.117C662.94 316.406 663.541 318.237 663.541 320.61V322.104ZM660.86 319.995C660.851 318.55 660.484 317.432 659.762 316.641C659.049 315.85 657.96 315.454 656.495 315.454C655.021 315.454 653.844 315.889 652.965 316.758C652.096 317.627 651.603 318.706 651.485 319.995H660.86ZM680.431 330H677.691V328.257C677.447 328.423 677.115 328.657 676.695 328.96C676.285 329.253 675.885 329.487 675.494 329.663C675.035 329.888 674.508 330.073 673.912 330.22C673.316 330.376 672.618 330.454 671.817 330.454C670.343 330.454 669.093 329.966 668.067 328.989C667.042 328.013 666.529 326.768 666.529 325.254C666.529 324.014 666.793 323.013 667.32 322.251C667.857 321.479 668.619 320.874 669.605 320.435C670.602 319.995 671.798 319.697 673.194 319.541C674.591 319.385 676.09 319.268 677.691 319.189V318.765C677.691 318.14 677.579 317.622 677.354 317.212C677.14 316.802 676.827 316.479 676.417 316.245C676.026 316.021 675.558 315.869 675.011 315.791C674.464 315.713 673.893 315.674 673.297 315.674C672.574 315.674 671.769 315.771 670.88 315.967C669.991 316.152 669.073 316.426 668.126 316.787H667.979V313.989C668.517 313.843 669.293 313.682 670.309 313.506C671.324 313.33 672.325 313.242 673.312 313.242C674.464 313.242 675.465 313.34 676.314 313.535C677.174 313.721 677.916 314.043 678.541 314.502C679.156 314.951 679.625 315.532 679.947 316.245C680.27 316.958 680.431 317.842 680.431 318.896V330ZM677.691 325.972V321.416C676.852 321.465 675.86 321.538 674.718 321.636C673.585 321.733 672.687 321.875 672.022 322.061C671.231 322.285 670.592 322.637 670.104 323.115C669.615 323.584 669.371 324.233 669.371 325.063C669.371 326.001 669.654 326.709 670.221 327.188C670.787 327.656 671.651 327.891 672.813 327.891C673.78 327.891 674.664 327.705 675.465 327.334C676.266 326.953 677.008 326.499 677.691 325.972ZM697.423 325.283C697.423 326.777 696.803 328.003 695.562 328.96C694.332 329.917 692.647 330.396 690.509 330.396C689.298 330.396 688.185 330.254 687.169 329.971C686.163 329.678 685.318 329.36 684.635 329.019V325.928H684.781C685.65 326.582 686.617 327.104 687.682 327.495C688.746 327.876 689.767 328.066 690.743 328.066C691.954 328.066 692.901 327.871 693.585 327.48C694.269 327.09 694.61 326.475 694.61 325.635C694.61 324.99 694.425 324.502 694.054 324.17C693.683 323.838 692.97 323.555 691.915 323.32C691.524 323.232 691.012 323.13 690.377 323.013C689.752 322.896 689.181 322.769 688.663 322.632C687.228 322.251 686.207 321.694 685.602 320.962C685.006 320.22 684.708 319.312 684.708 318.237C684.708 317.563 684.845 316.929 685.118 316.333C685.401 315.737 685.826 315.205 686.393 314.736C686.939 314.277 687.633 313.916 688.473 313.652C689.322 313.379 690.27 313.242 691.314 313.242C692.291 313.242 693.277 313.364 694.273 313.608C695.279 313.843 696.114 314.131 696.778 314.473V317.417H696.632C695.929 316.899 695.074 316.465 694.068 316.113C693.062 315.752 692.076 315.571 691.109 315.571C690.104 315.571 689.254 315.767 688.561 316.157C687.867 316.538 687.521 317.109 687.521 317.871C687.521 318.545 687.73 319.053 688.15 319.395C688.561 319.736 689.225 320.015 690.143 320.229C690.65 320.347 691.217 320.464 691.842 320.581C692.477 320.698 693.004 320.806 693.424 320.903C694.703 321.196 695.689 321.699 696.383 322.412C697.076 323.135 697.423 324.092 697.423 325.283ZM720.421 329.854C719.903 329.99 719.337 330.103 718.722 330.19C718.116 330.278 717.574 330.322 717.096 330.322C715.426 330.322 714.156 329.873 713.287 328.975C712.418 328.076 711.983 326.636 711.983 324.653V315.952H710.123V313.638H711.983V308.936H714.737V313.638H720.421V315.952H714.737V323.408C714.737 324.268 714.757 324.941 714.796 325.43C714.835 325.908 714.972 326.357 715.206 326.777C715.421 327.168 715.714 327.456 716.085 327.642C716.466 327.817 717.042 327.905 717.813 327.905C718.263 327.905 718.731 327.842 719.22 327.715C719.708 327.578 720.06 327.466 720.274 327.378H720.421V329.854ZM737.706 321.826C737.706 324.492 737.022 326.597 735.655 328.14C734.288 329.683 732.457 330.454 730.162 330.454C727.848 330.454 726.007 329.683 724.64 328.14C723.282 326.597 722.604 324.492 722.604 321.826C722.604 319.16 723.282 317.056 724.64 315.513C726.007 313.96 727.848 313.184 730.162 313.184C732.457 313.184 734.288 313.96 735.655 315.513C737.022 317.056 737.706 319.16 737.706 321.826ZM734.864 321.826C734.864 319.707 734.449 318.135 733.619 317.109C732.789 316.074 731.637 315.557 730.162 315.557C728.668 315.557 727.506 316.074 726.676 317.109C725.855 318.135 725.445 319.707 725.445 321.826C725.445 323.877 725.86 325.435 726.69 326.499C727.521 327.554 728.678 328.081 730.162 328.081C731.627 328.081 732.774 327.559 733.604 326.514C734.444 325.459 734.864 323.896 734.864 321.826ZM755.255 328.14C755.255 330.913 754.625 332.949 753.365 334.248C752.105 335.547 750.167 336.196 747.55 336.196C746.681 336.196 745.831 336.133 745.001 336.006C744.181 335.889 743.37 335.718 742.569 335.493V332.681H742.716C743.165 332.856 743.878 333.071 744.854 333.325C745.831 333.589 746.808 333.721 747.784 333.721C748.722 333.721 749.498 333.608 750.113 333.384C750.729 333.159 751.207 332.847 751.549 332.446C751.891 332.065 752.135 331.606 752.281 331.069C752.428 330.532 752.501 329.932 752.501 329.268V327.773C751.671 328.438 750.875 328.936 750.113 329.268C749.361 329.59 748.399 329.751 747.228 329.751C745.274 329.751 743.722 329.048 742.569 327.642C741.427 326.226 740.855 324.233 740.855 321.665C740.855 320.259 741.051 319.048 741.441 318.032C741.842 317.007 742.384 316.123 743.067 315.381C743.702 314.688 744.474 314.15 745.382 313.77C746.29 313.379 747.193 313.184 748.092 313.184C749.039 313.184 749.83 313.281 750.465 313.477C751.109 313.662 751.788 313.95 752.501 314.341L752.677 313.638H755.255V328.14ZM752.501 325.503V316.582C751.769 316.25 751.085 316.016 750.45 315.879C749.825 315.732 749.2 315.659 748.575 315.659C747.062 315.659 745.87 316.167 745.001 317.183C744.132 318.198 743.697 319.673 743.697 321.606C743.697 323.442 744.02 324.834 744.664 325.781C745.309 326.729 746.378 327.202 747.872 327.202C748.673 327.202 749.474 327.051 750.274 326.748C751.085 326.436 751.827 326.021 752.501 325.503ZM774.371 322.104H762.315C762.315 323.11 762.467 323.989 762.77 324.741C763.072 325.483 763.487 326.094 764.015 326.572C764.522 327.041 765.123 327.393 765.816 327.627C766.52 327.861 767.291 327.979 768.131 327.979C769.244 327.979 770.362 327.759 771.485 327.319C772.618 326.87 773.424 326.431 773.902 326.001H774.049V329.004C773.121 329.395 772.174 329.722 771.207 329.985C770.24 330.249 769.225 330.381 768.16 330.381C765.445 330.381 763.326 329.648 761.803 328.184C760.279 326.709 759.518 324.619 759.518 321.914C759.518 319.238 760.245 317.114 761.7 315.542C763.165 313.97 765.089 313.184 767.472 313.184C769.679 313.184 771.378 313.828 772.569 315.117C773.771 316.406 774.371 318.237 774.371 320.61V322.104ZM771.69 319.995C771.681 318.55 771.314 317.432 770.592 316.641C769.879 315.85 768.79 315.454 767.325 315.454C765.851 315.454 764.674 315.889 763.795 316.758C762.926 317.627 762.433 318.706 762.315 319.995H771.69ZM787.042 329.854C786.524 329.99 785.958 330.103 785.343 330.19C784.737 330.278 784.195 330.322 783.717 330.322C782.047 330.322 780.777 329.873 779.908 328.975C779.039 328.076 778.604 326.636 778.604 324.653V315.952H776.744V313.638H778.604V308.936H781.358V313.638H787.042V315.952H781.358V323.408C781.358 324.268 781.378 324.941 781.417 325.43C781.456 325.908 781.593 326.357 781.827 326.777C782.042 327.168 782.335 327.456 782.706 327.642C783.087 327.817 783.663 327.905 784.435 327.905C784.884 327.905 785.353 327.842 785.841 327.715C786.329 327.578 786.681 327.466 786.896 327.378H787.042V329.854ZM804.063 330H801.31V320.684C801.31 319.932 801.266 319.229 801.178 318.574C801.09 317.91 800.929 317.393 800.694 317.021C800.45 316.611 800.099 316.309 799.64 316.113C799.181 315.908 798.585 315.806 797.853 315.806C797.101 315.806 796.314 315.991 795.494 316.362C794.674 316.733 793.888 317.207 793.136 317.783V330H790.382V307.207H793.136V315.454C793.995 314.741 794.884 314.185 795.802 313.784C796.72 313.384 797.662 313.184 798.629 313.184C800.396 313.184 801.744 313.716 802.672 314.78C803.6 315.845 804.063 317.378 804.063 319.38V330ZM823.062 322.104H811.007C811.007 323.11 811.158 323.989 811.461 324.741C811.764 325.483 812.179 326.094 812.706 326.572C813.214 327.041 813.814 327.393 814.508 327.627C815.211 327.861 815.982 327.979 816.822 327.979C817.936 327.979 819.054 327.759 820.177 327.319C821.31 326.87 822.115 326.431 822.594 326.001H822.74V329.004C821.812 329.395 820.865 329.722 819.898 329.985C818.932 330.249 817.916 330.381 816.852 330.381C814.137 330.381 812.018 329.648 810.494 328.184C808.971 326.709 808.209 324.619 808.209 321.914C808.209 319.238 808.937 317.114 810.392 315.542C811.856 313.97 813.78 313.184 816.163 313.184C818.37 313.184 820.069 313.828 821.261 315.117C822.462 316.406 823.062 318.237 823.062 320.61V322.104ZM820.382 319.995C820.372 318.55 820.006 317.432 819.283 316.641C818.57 315.85 817.481 315.454 816.017 315.454C814.542 315.454 813.365 315.889 812.486 316.758C811.617 317.627 811.124 318.706 811.007 319.995H820.382ZM837.447 316.641H837.301C836.891 316.543 836.49 316.475 836.1 316.436C835.719 316.387 835.265 316.362 834.737 316.362C833.888 316.362 833.067 316.553 832.276 316.934C831.485 317.305 830.724 317.788 829.991 318.384V330H827.237V313.638H829.991V316.055C831.085 315.176 832.047 314.556 832.877 314.194C833.717 313.823 834.571 313.638 835.44 313.638C835.919 313.638 836.266 313.652 836.48 313.682C836.695 313.701 837.018 313.745 837.447 313.813V316.641ZM844.537 330H841.036V325.825H844.537V330ZM243.189 352.693C244.078 353.67 244.757 354.866 245.226 356.282C245.704 357.698 245.943 359.305 245.943 361.102C245.943 362.898 245.699 364.51 245.211 365.936C244.732 367.352 244.059 368.533 243.189 369.48C242.291 370.467 241.227 371.209 239.996 371.707C238.775 372.205 237.379 372.454 235.807 372.454C234.273 372.454 232.877 372.2 231.617 371.692C230.367 371.185 229.303 370.447 228.424 369.48C227.545 368.514 226.866 367.327 226.388 365.921C225.919 364.515 225.685 362.908 225.685 361.102C225.685 359.324 225.919 357.732 226.388 356.326C226.856 354.91 227.54 353.699 228.438 352.693C229.298 351.736 230.362 351.004 231.632 350.496C232.911 349.988 234.303 349.734 235.807 349.734C237.369 349.734 238.771 349.993 240.011 350.511C241.261 351.019 242.32 351.746 243.189 352.693ZM242.926 361.102C242.926 358.27 242.291 356.087 241.021 354.554C239.752 353.011 238.019 352.239 235.821 352.239C233.604 352.239 231.861 353.011 230.592 354.554C229.332 356.087 228.702 358.27 228.702 361.102C228.702 363.963 229.347 366.155 230.636 367.679C231.925 369.192 233.653 369.949 235.821 369.949C237.989 369.949 239.713 369.192 240.992 367.679C242.281 366.155 242.926 363.963 242.926 361.102ZM264.474 355.638L257.853 372H255.084L248.507 355.638H251.495L256.563 368.66L261.588 355.638H264.474ZM281.773 364.104H269.718C269.718 365.11 269.869 365.989 270.172 366.741C270.475 367.483 270.89 368.094 271.417 368.572C271.925 369.041 272.525 369.393 273.219 369.627C273.922 369.861 274.693 369.979 275.533 369.979C276.646 369.979 277.765 369.759 278.888 369.319C280.021 368.87 280.826 368.431 281.305 368.001H281.451V371.004C280.523 371.395 279.576 371.722 278.609 371.985C277.643 372.249 276.627 372.381 275.562 372.381C272.848 372.381 270.729 371.648 269.205 370.184C267.682 368.709 266.92 366.619 266.92 363.914C266.92 361.238 267.647 359.114 269.103 357.542C270.567 355.97 272.491 355.184 274.874 355.184C277.081 355.184 278.78 355.828 279.972 357.117C281.173 358.406 281.773 360.237 281.773 362.61V364.104ZM279.093 361.995C279.083 360.55 278.717 359.432 277.994 358.641C277.281 357.85 276.192 357.454 274.728 357.454C273.253 357.454 272.076 357.889 271.197 358.758C270.328 359.627 269.835 360.706 269.718 361.995H279.093ZM296.158 358.641H296.012C295.602 358.543 295.201 358.475 294.811 358.436C294.43 358.387 293.976 358.362 293.448 358.362C292.599 358.362 291.778 358.553 290.987 358.934C290.196 359.305 289.435 359.788 288.702 360.384V372H285.948V355.638H288.702V358.055C289.796 357.176 290.758 356.556 291.588 356.194C292.428 355.823 293.282 355.638 294.151 355.638C294.63 355.638 294.977 355.652 295.191 355.682C295.406 355.701 295.729 355.745 296.158 355.813V358.641ZM322.013 372H319.273V370.257C319.029 370.423 318.697 370.657 318.277 370.96C317.867 371.253 317.467 371.487 317.076 371.663C316.617 371.888 316.09 372.073 315.494 372.22C314.898 372.376 314.2 372.454 313.399 372.454C311.925 372.454 310.675 371.966 309.649 370.989C308.624 370.013 308.111 368.768 308.111 367.254C308.111 366.014 308.375 365.013 308.902 364.251C309.439 363.479 310.201 362.874 311.188 362.435C312.184 361.995 313.38 361.697 314.776 361.541C316.173 361.385 317.672 361.268 319.273 361.189V360.765C319.273 360.14 319.161 359.622 318.937 359.212C318.722 358.802 318.409 358.479 317.999 358.245C317.608 358.021 317.14 357.869 316.593 357.791C316.046 357.713 315.475 357.674 314.879 357.674C314.156 357.674 313.351 357.771 312.462 357.967C311.573 358.152 310.655 358.426 309.708 358.787H309.562V355.989C310.099 355.843 310.875 355.682 311.891 355.506C312.906 355.33 313.907 355.242 314.894 355.242C316.046 355.242 317.047 355.34 317.896 355.535C318.756 355.721 319.498 356.043 320.123 356.502C320.738 356.951 321.207 357.532 321.529 358.245C321.852 358.958 322.013 359.842 322.013 360.896V372ZM319.273 367.972V363.416C318.434 363.465 317.442 363.538 316.3 363.636C315.167 363.733 314.269 363.875 313.604 364.061C312.813 364.285 312.174 364.637 311.686 365.115C311.197 365.584 310.953 366.233 310.953 367.063C310.953 368.001 311.236 368.709 311.803 369.188C312.369 369.656 313.233 369.891 314.396 369.891C315.362 369.891 316.246 369.705 317.047 369.334C317.848 368.953 318.59 368.499 319.273 367.972ZM352.262 363.694C352.262 365.062 352.066 366.292 351.676 367.386C351.295 368.479 350.777 369.397 350.123 370.14C349.43 370.911 348.668 371.492 347.838 371.883C347.008 372.264 346.095 372.454 345.099 372.454C344.171 372.454 343.36 372.342 342.667 372.117C341.974 371.902 341.29 371.609 340.616 371.238L340.44 372H337.862V349.207H340.616V357.352C341.388 356.717 342.208 356.199 343.077 355.799C343.946 355.389 344.923 355.184 346.007 355.184C347.94 355.184 349.464 355.926 350.577 357.41C351.7 358.895 352.262 360.989 352.262 363.694ZM349.42 363.768C349.42 361.814 349.098 360.335 348.453 359.329C347.809 358.313 346.769 357.806 345.333 357.806C344.532 357.806 343.722 357.981 342.901 358.333C342.081 358.675 341.319 359.119 340.616 359.666V369.041C341.397 369.393 342.066 369.637 342.623 369.773C343.189 369.91 343.829 369.979 344.542 369.979C346.065 369.979 347.257 369.48 348.116 368.484C348.985 367.479 349.42 365.906 349.42 363.768ZM370.499 363.826C370.499 366.492 369.815 368.597 368.448 370.14C367.081 371.683 365.25 372.454 362.955 372.454C360.641 372.454 358.8 371.683 357.433 370.14C356.075 368.597 355.396 366.492 355.396 363.826C355.396 361.16 356.075 359.056 357.433 357.513C358.8 355.96 360.641 355.184 362.955 355.184C365.25 355.184 367.081 355.96 368.448 357.513C369.815 359.056 370.499 361.16 370.499 363.826ZM367.657 363.826C367.657 361.707 367.242 360.135 366.412 359.109C365.582 358.074 364.43 357.557 362.955 357.557C361.461 357.557 360.299 358.074 359.469 359.109C358.648 360.135 358.238 361.707 358.238 363.826C358.238 365.877 358.653 367.435 359.483 368.499C360.313 369.554 361.471 370.081 362.955 370.081C364.42 370.081 365.567 369.559 366.397 368.514C367.237 367.459 367.657 365.896 367.657 363.826ZM395.357 355.638L391.095 372H388.546L384.342 359.388L380.167 372H377.633L373.326 355.638H376.197L379.2 368.309L383.287 355.638H385.558L389.747 368.309L392.589 355.638H395.357ZM402.11 372H399.356V349.207H402.11V372ZM432.052 363.826C432.052 366.492 431.368 368.597 430.001 370.14C428.634 371.683 426.803 372.454 424.508 372.454C422.193 372.454 420.353 371.683 418.985 370.14C417.628 368.597 416.949 366.492 416.949 363.826C416.949 361.16 417.628 359.056 418.985 357.513C420.353 355.96 422.193 355.184 424.508 355.184C426.803 355.184 428.634 355.96 430.001 357.513C431.368 359.056 432.052 361.16 432.052 363.826ZM429.21 363.826C429.21 361.707 428.795 360.135 427.965 359.109C427.135 358.074 425.982 357.557 424.508 357.557C423.014 357.557 421.852 358.074 421.021 359.109C420.201 360.135 419.791 361.707 419.791 363.826C419.791 365.877 420.206 367.435 421.036 368.499C421.866 369.554 423.023 370.081 424.508 370.081C425.973 370.081 427.12 369.559 427.95 368.514C428.79 367.459 429.21 365.896 429.21 363.826ZM445.133 351.873H444.986C444.684 351.785 444.288 351.697 443.8 351.609C443.312 351.512 442.882 351.463 442.511 351.463C441.329 351.463 440.47 351.727 439.933 352.254C439.405 352.771 439.142 353.714 439.142 355.081V355.638H444.107V357.952H439.229V372H436.476V357.952H434.615V355.638H436.476V355.096C436.476 353.152 436.959 351.663 437.926 350.628C438.893 349.583 440.289 349.061 442.115 349.061C442.73 349.061 443.282 349.09 443.771 349.148C444.269 349.207 444.723 349.275 445.133 349.354V351.873ZM465.919 371.854C465.401 371.99 464.835 372.103 464.22 372.19C463.614 372.278 463.072 372.322 462.594 372.322C460.924 372.322 459.654 371.873 458.785 370.975C457.916 370.076 457.481 368.636 457.481 366.653V357.952H455.621V355.638H457.481V350.936H460.235V355.638H465.919V357.952H460.235V365.408C460.235 366.268 460.255 366.941 460.294 367.43C460.333 367.908 460.47 368.357 460.704 368.777C460.919 369.168 461.212 369.456 461.583 369.642C461.964 369.817 462.54 369.905 463.312 369.905C463.761 369.905 464.229 369.842 464.718 369.715C465.206 369.578 465.558 369.466 465.772 369.378H465.919V371.854ZM481.974 372H479.234V370.257C478.99 370.423 478.658 370.657 478.238 370.96C477.828 371.253 477.428 371.487 477.037 371.663C476.578 371.888 476.051 372.073 475.455 372.22C474.859 372.376 474.161 372.454 473.36 372.454C471.886 372.454 470.636 371.966 469.61 370.989C468.585 370.013 468.072 368.768 468.072 367.254C468.072 366.014 468.336 365.013 468.863 364.251C469.4 363.479 470.162 362.874 471.148 362.435C472.145 361.995 473.341 361.697 474.737 361.541C476.134 361.385 477.633 361.268 479.234 361.189V360.765C479.234 360.14 479.122 359.622 478.897 359.212C478.683 358.802 478.37 358.479 477.96 358.245C477.569 358.021 477.101 357.869 476.554 357.791C476.007 357.713 475.436 357.674 474.84 357.674C474.117 357.674 473.312 357.771 472.423 357.967C471.534 358.152 470.616 358.426 469.669 358.787H469.522V355.989C470.06 355.843 470.836 355.682 471.852 355.506C472.867 355.33 473.868 355.242 474.854 355.242C476.007 355.242 477.008 355.34 477.857 355.535C478.717 355.721 479.459 356.043 480.084 356.502C480.699 356.951 481.168 357.532 481.49 358.245C481.812 358.958 481.974 359.842 481.974 360.896V372ZM479.234 367.972V363.416C478.395 363.465 477.403 363.538 476.261 363.636C475.128 363.733 474.229 363.875 473.565 364.061C472.774 364.285 472.135 364.637 471.646 365.115C471.158 365.584 470.914 366.233 470.914 367.063C470.914 368.001 471.197 368.709 471.764 369.188C472.33 369.656 473.194 369.891 474.356 369.891C475.323 369.891 476.207 369.705 477.008 369.334C477.809 368.953 478.551 368.499 479.234 367.972ZM500.548 370.14C500.548 372.913 499.918 374.949 498.658 376.248C497.398 377.547 495.46 378.196 492.843 378.196C491.974 378.196 491.124 378.133 490.294 378.006C489.474 377.889 488.663 377.718 487.862 377.493V374.681H488.009C488.458 374.856 489.171 375.071 490.147 375.325C491.124 375.589 492.101 375.721 493.077 375.721C494.015 375.721 494.791 375.608 495.406 375.384C496.021 375.159 496.5 374.847 496.842 374.446C497.184 374.065 497.428 373.606 497.574 373.069C497.721 372.532 497.794 371.932 497.794 371.268V369.773C496.964 370.438 496.168 370.936 495.406 371.268C494.654 371.59 493.692 371.751 492.521 371.751C490.567 371.751 489.015 371.048 487.862 369.642C486.72 368.226 486.148 366.233 486.148 363.665C486.148 362.259 486.344 361.048 486.734 360.032C487.135 359.007 487.677 358.123 488.36 357.381C488.995 356.688 489.767 356.15 490.675 355.77C491.583 355.379 492.486 355.184 493.385 355.184C494.332 355.184 495.123 355.281 495.758 355.477C496.402 355.662 497.081 355.95 497.794 356.341L497.97 355.638H500.548V370.14ZM497.794 367.503V358.582C497.062 358.25 496.378 358.016 495.743 357.879C495.118 357.732 494.493 357.659 493.868 357.659C492.354 357.659 491.163 358.167 490.294 359.183C489.425 360.198 488.99 361.673 488.99 363.606C488.99 365.442 489.312 366.834 489.957 367.781C490.602 368.729 491.671 369.202 493.165 369.202C493.966 369.202 494.767 369.051 495.567 368.748C496.378 368.436 497.12 368.021 497.794 367.503ZM508.751 372H505.997V349.207H508.751V372ZM517.159 352.898H514.054V350.042H517.159V352.898ZM516.983 372H514.229V355.638H516.983V372ZM535.147 372H532.408V370.257C532.164 370.423 531.832 370.657 531.412 370.96C531.002 371.253 530.602 371.487 530.211 371.663C529.752 371.888 529.225 372.073 528.629 372.22C528.033 372.376 527.335 372.454 526.534 372.454C525.06 372.454 523.81 371.966 522.784 370.989C521.759 370.013 521.246 368.768 521.246 367.254C521.246 366.014 521.51 365.013 522.037 364.251C522.574 363.479 523.336 362.874 524.322 362.435C525.318 361.995 526.515 361.697 527.911 361.541C529.308 361.385 530.807 361.268 532.408 361.189V360.765C532.408 360.14 532.296 359.622 532.071 359.212C531.856 358.802 531.544 358.479 531.134 358.245C530.743 358.021 530.274 357.869 529.728 357.791C529.181 357.713 528.609 357.674 528.014 357.674C527.291 357.674 526.485 357.771 525.597 357.967C524.708 358.152 523.79 358.426 522.843 358.787H522.696V355.989C523.233 355.843 524.01 355.682 525.025 355.506C526.041 355.33 527.042 355.242 528.028 355.242C529.181 355.242 530.182 355.34 531.031 355.535C531.891 355.721 532.633 356.043 533.258 356.502C533.873 356.951 534.342 357.532 534.664 358.245C534.986 358.958 535.147 359.842 535.147 360.896V372ZM532.408 367.972V363.416C531.568 363.465 530.577 363.538 529.435 363.636C528.302 363.733 527.403 363.875 526.739 364.061C525.948 364.285 525.309 364.637 524.82 365.115C524.332 365.584 524.088 366.233 524.088 367.063C524.088 368.001 524.371 368.709 524.938 369.188C525.504 369.656 526.368 369.891 527.53 369.891C528.497 369.891 529.381 369.705 530.182 369.334C530.982 368.953 531.725 368.499 532.408 367.972ZM548.946 371.854C548.429 371.99 547.862 372.103 547.247 372.19C546.642 372.278 546.1 372.322 545.621 372.322C543.951 372.322 542.682 371.873 541.812 370.975C540.943 370.076 540.509 368.636 540.509 366.653V357.952H538.648V355.638H540.509V350.936H543.263V355.638H548.946V357.952H543.263V365.408C543.263 366.268 543.282 366.941 543.321 367.43C543.36 367.908 543.497 368.357 543.731 368.777C543.946 369.168 544.239 369.456 544.61 369.642C544.991 369.817 545.567 369.905 546.339 369.905C546.788 369.905 547.257 369.842 547.745 369.715C548.233 369.578 548.585 369.466 548.8 369.378H548.946V371.854ZM565.982 364.104H553.927C553.927 365.11 554.078 365.989 554.381 366.741C554.684 367.483 555.099 368.094 555.626 368.572C556.134 369.041 556.734 369.393 557.428 369.627C558.131 369.861 558.902 369.979 559.742 369.979C560.855 369.979 561.974 369.759 563.097 369.319C564.229 368.87 565.035 368.431 565.514 368.001H565.66V371.004C564.732 371.395 563.785 371.722 562.818 371.985C561.852 372.249 560.836 372.381 559.771 372.381C557.057 372.381 554.938 371.648 553.414 370.184C551.891 368.709 551.129 366.619 551.129 363.914C551.129 361.238 551.856 359.114 553.312 357.542C554.776 355.97 556.7 355.184 559.083 355.184C561.29 355.184 562.989 355.828 564.181 357.117C565.382 358.406 565.982 360.237 565.982 362.61V364.104ZM563.302 361.995C563.292 360.55 562.926 359.432 562.203 358.641C561.49 357.85 560.401 357.454 558.937 357.454C557.462 357.454 556.285 357.889 555.406 358.758C554.537 359.627 554.044 360.706 553.927 361.995H563.302ZM572.94 372H570.187V349.207H572.94V372ZM581.173 372H578.419V349.207H581.173V372ZM600.318 364.104H588.263C588.263 365.11 588.414 365.989 588.717 366.741C589.02 367.483 589.435 368.094 589.962 368.572C590.47 369.041 591.07 369.393 591.764 369.627C592.467 369.861 593.238 369.979 594.078 369.979C595.191 369.979 596.31 369.759 597.433 369.319C598.565 368.87 599.371 368.431 599.85 368.001H599.996V371.004C599.068 371.395 598.121 371.722 597.154 371.985C596.188 372.249 595.172 372.381 594.107 372.381C591.393 372.381 589.273 371.648 587.75 370.184C586.227 368.709 585.465 366.619 585.465 363.914C585.465 361.238 586.192 359.114 587.647 357.542C589.112 355.97 591.036 355.184 593.419 355.184C595.626 355.184 597.325 355.828 598.517 357.117C599.718 358.406 600.318 360.237 600.318 362.61V364.104ZM597.638 361.995C597.628 360.55 597.262 359.432 596.539 358.641C595.826 357.85 594.737 357.454 593.272 357.454C591.798 357.454 590.621 357.889 589.742 358.758C588.873 359.627 588.38 360.706 588.263 361.995H597.638ZM635.621 355.638L631.358 372H628.81L624.605 359.388L620.431 372H617.896L613.59 355.638H616.461L619.464 368.309L623.551 355.638H625.821L630.011 368.309L632.853 355.638H635.621ZM642.55 352.898H639.444V350.042H642.55V352.898ZM642.374 372H639.62V355.638H642.374V372ZM656.319 371.854C655.802 371.99 655.235 372.103 654.62 372.19C654.015 372.278 653.473 372.322 652.994 372.322C651.324 372.322 650.055 371.873 649.186 370.975C648.316 370.076 647.882 368.636 647.882 366.653V357.952H646.021V355.638H647.882V350.936H650.636V355.638H656.319V357.952H650.636V365.408C650.636 366.268 650.655 366.941 650.694 367.43C650.733 367.908 650.87 368.357 651.104 368.777C651.319 369.168 651.612 369.456 651.983 369.642C652.364 369.817 652.94 369.905 653.712 369.905C654.161 369.905 654.63 369.842 655.118 369.715C655.606 369.578 655.958 369.466 656.173 369.378H656.319V371.854ZM673.341 372H670.587V362.684C670.587 361.932 670.543 361.229 670.455 360.574C670.367 359.91 670.206 359.393 669.972 359.021C669.728 358.611 669.376 358.309 668.917 358.113C668.458 357.908 667.862 357.806 667.13 357.806C666.378 357.806 665.592 357.991 664.771 358.362C663.951 358.733 663.165 359.207 662.413 359.783V372H659.659V349.207H662.413V357.454C663.272 356.741 664.161 356.185 665.079 355.784C665.997 355.384 666.939 355.184 667.906 355.184C669.674 355.184 671.021 355.716 671.949 356.78C672.877 357.845 673.341 359.378 673.341 361.38V372ZM703.341 355.638L693.79 378.035H690.846L693.893 371.209L687.374 355.638H690.362L695.387 367.767L700.455 355.638H703.341ZM720.89 363.826C720.89 366.492 720.206 368.597 718.839 370.14C717.472 371.683 715.641 372.454 713.346 372.454C711.031 372.454 709.19 371.683 707.823 370.14C706.466 368.597 705.787 366.492 705.787 363.826C705.787 361.16 706.466 359.056 707.823 357.513C709.19 355.96 711.031 355.184 713.346 355.184C715.641 355.184 717.472 355.96 718.839 357.513C720.206 359.056 720.89 361.16 720.89 363.826ZM718.048 363.826C718.048 361.707 717.633 360.135 716.803 359.109C715.973 358.074 714.82 357.557 713.346 357.557C711.852 357.557 710.689 358.074 709.859 359.109C709.039 360.135 708.629 361.707 708.629 363.826C708.629 365.877 709.044 367.435 709.874 368.499C710.704 369.554 711.861 370.081 713.346 370.081C714.811 370.081 715.958 369.559 716.788 368.514C717.628 367.459 718.048 365.896 718.048 363.826ZM738.731 372H735.978V370.184C735.05 370.916 734.161 371.478 733.312 371.868C732.462 372.259 731.524 372.454 730.499 372.454C728.78 372.454 727.442 371.932 726.485 370.887C725.528 369.832 725.05 368.289 725.05 366.258V355.638H727.804V364.954C727.804 365.784 727.843 366.497 727.921 367.093C727.999 367.679 728.165 368.182 728.419 368.602C728.683 369.031 729.024 369.344 729.444 369.539C729.864 369.734 730.475 369.832 731.275 369.832C731.988 369.832 732.765 369.646 733.604 369.275C734.454 368.904 735.245 368.431 735.978 367.854V355.638H738.731V372ZM754.361 358.641H754.215C753.805 358.543 753.404 358.475 753.014 358.436C752.633 358.387 752.179 358.362 751.651 358.362C750.802 358.362 749.981 358.553 749.19 358.934C748.399 359.305 747.638 359.788 746.905 360.384V372H744.151V355.638H746.905V358.055C747.999 357.176 748.961 356.556 749.791 356.194C750.631 355.823 751.485 355.638 752.354 355.638C752.833 355.638 753.18 355.652 753.395 355.682C753.609 355.701 753.932 355.745 754.361 355.813V358.641ZM781.886 359.783C781.886 361.688 781.666 363.416 781.227 364.969C780.797 366.521 780.143 367.845 779.264 368.938C778.375 370.052 777.262 370.911 775.924 371.517C774.586 372.122 773.014 372.425 771.207 372.425C770.699 372.425 770.221 372.396 769.771 372.337C769.322 372.288 768.922 372.205 768.57 372.088V369.29H768.717C769 369.437 769.4 369.578 769.918 369.715C770.436 369.842 771.012 369.905 771.646 369.905C773.805 369.905 775.494 369.261 776.715 367.972C777.945 366.673 778.658 364.886 778.854 362.61C777.945 363.157 777.091 363.548 776.29 363.782C775.489 364.017 774.615 364.134 773.668 364.134C772.77 364.134 771.954 364.046 771.222 363.87C770.499 363.694 769.771 363.353 769.039 362.845C768.18 362.249 767.53 361.492 767.091 360.574C766.661 359.656 766.446 358.558 766.446 357.278C766.446 355.052 767.179 353.24 768.644 351.844C770.108 350.447 771.896 349.749 774.005 349.749C775.06 349.749 776.036 349.915 776.935 350.247C777.833 350.569 778.619 351.058 779.293 351.712C780.123 352.522 780.763 353.567 781.212 354.847C781.661 356.116 781.886 357.762 781.886 359.783ZM778.927 359.153C778.927 357.64 778.771 356.424 778.458 355.506C778.146 354.588 777.716 353.875 777.169 353.367C776.71 352.928 776.217 352.615 775.689 352.43C775.162 352.234 774.591 352.137 773.976 352.137C772.569 352.137 771.456 352.576 770.636 353.455C769.825 354.334 769.42 355.569 769.42 357.161C769.42 358.089 769.552 358.846 769.815 359.432C770.079 360.018 770.523 360.53 771.148 360.97C771.588 361.272 772.071 361.478 772.599 361.585C773.126 361.683 773.712 361.731 774.356 361.731C775.118 361.731 775.89 361.629 776.671 361.424C777.452 361.219 778.185 360.921 778.868 360.53C778.878 360.325 778.888 360.125 778.897 359.93C778.917 359.725 778.927 359.466 778.927 359.153ZM799.068 361.497C799.537 361.917 799.923 362.444 800.226 363.079C800.528 363.714 800.68 364.534 800.68 365.54C800.68 366.536 800.499 367.449 800.138 368.279C799.776 369.109 799.269 369.832 798.614 370.447C797.882 371.131 797.018 371.639 796.021 371.971C795.035 372.293 793.951 372.454 792.77 372.454C791.559 372.454 790.367 372.308 789.195 372.015C788.023 371.731 787.062 371.419 786.31 371.077V368.016H786.529C787.359 368.562 788.336 369.017 789.459 369.378C790.582 369.739 791.666 369.92 792.711 369.92C793.326 369.92 793.98 369.817 794.674 369.612C795.367 369.407 795.929 369.104 796.358 368.704C796.808 368.274 797.14 367.801 797.354 367.283C797.579 366.766 797.691 366.111 797.691 365.32C797.691 364.539 797.564 363.895 797.311 363.387C797.066 362.869 796.725 362.464 796.285 362.171C795.846 361.868 795.313 361.663 794.688 361.556C794.063 361.438 793.39 361.38 792.667 361.38H791.349V358.948H792.374C793.858 358.948 795.04 358.641 795.919 358.025C796.808 357.4 797.252 356.492 797.252 355.301C797.252 354.773 797.14 354.314 796.915 353.924C796.69 353.523 796.378 353.196 795.978 352.942C795.558 352.688 795.108 352.513 794.63 352.415C794.151 352.317 793.609 352.269 793.004 352.269C792.076 352.269 791.09 352.435 790.045 352.767C789 353.099 788.014 353.567 787.086 354.173H786.939V351.111C787.633 350.77 788.556 350.457 789.708 350.174C790.87 349.881 791.993 349.734 793.077 349.734C794.142 349.734 795.079 349.832 795.89 350.027C796.7 350.223 797.433 350.535 798.087 350.965C798.79 351.434 799.322 352 799.684 352.664C800.045 353.328 800.226 354.104 800.226 354.993C800.226 356.204 799.796 357.264 798.937 358.172C798.087 359.07 797.081 359.637 795.919 359.871V360.076C796.388 360.154 796.925 360.32 797.53 360.574C798.136 360.818 798.648 361.126 799.068 361.497ZM814.317 363.782H805.177V361.131H814.317V363.782ZM833.419 355.638L823.868 378.035H820.924L823.971 371.209L817.452 355.638H820.44L825.465 367.767L830.533 355.638H833.419ZM850.719 364.104H838.663C838.663 365.11 838.814 365.989 839.117 366.741C839.42 367.483 839.835 368.094 840.362 368.572C840.87 369.041 841.471 369.393 842.164 369.627C842.867 369.861 843.639 369.979 844.479 369.979C845.592 369.979 846.71 369.759 847.833 369.319C848.966 368.87 849.771 368.431 850.25 368.001H850.396V371.004C849.469 371.395 848.521 371.722 847.555 371.985C846.588 372.249 845.572 372.381 844.508 372.381C841.793 372.381 839.674 371.648 838.15 370.184C836.627 368.709 835.865 366.619 835.865 363.914C835.865 361.238 836.593 359.114 838.048 357.542C839.513 355.97 841.437 355.184 843.819 355.184C846.026 355.184 847.726 355.828 848.917 357.117C850.118 358.406 850.719 360.237 850.719 362.61V364.104ZM848.038 361.995C848.028 360.55 847.662 359.432 846.939 358.641C846.227 357.85 845.138 357.454 843.673 357.454C842.198 357.454 841.021 357.889 840.143 358.758C839.273 359.627 838.78 360.706 838.663 361.995H848.038ZM867.608 372H864.869V370.257C864.625 370.423 864.293 370.657 863.873 370.96C863.463 371.253 863.062 371.487 862.672 371.663C862.213 371.888 861.686 372.073 861.09 372.22C860.494 372.376 859.796 372.454 858.995 372.454C857.521 372.454 856.271 371.966 855.245 370.989C854.22 370.013 853.707 368.768 853.707 367.254C853.707 366.014 853.971 365.013 854.498 364.251C855.035 363.479 855.797 362.874 856.783 362.435C857.779 361.995 858.976 361.697 860.372 361.541C861.769 361.385 863.268 361.268 864.869 361.189V360.765C864.869 360.14 864.757 359.622 864.532 359.212C864.317 358.802 864.005 358.479 863.595 358.245C863.204 358.021 862.735 357.869 862.188 357.791C861.642 357.713 861.07 357.674 860.475 357.674C859.752 357.674 858.946 357.771 858.058 357.967C857.169 358.152 856.251 358.426 855.304 358.787H855.157V355.989C855.694 355.843 856.471 355.682 857.486 355.506C858.502 355.33 859.503 355.242 860.489 355.242C861.642 355.242 862.643 355.34 863.492 355.535C864.352 355.721 865.094 356.043 865.719 356.502C866.334 356.951 866.803 357.532 867.125 358.245C867.447 358.958 867.608 359.842 867.608 360.896V372ZM864.869 367.972V363.416C864.029 363.465 863.038 363.538 861.896 363.636C860.763 363.733 859.864 363.875 859.2 364.061C858.409 364.285 857.77 364.637 857.281 365.115C856.793 365.584 856.549 366.233 856.549 367.063C856.549 368.001 856.832 368.709 857.398 369.188C857.965 369.656 858.829 369.891 859.991 369.891C860.958 369.891 861.842 369.705 862.643 369.334C863.443 368.953 864.186 368.499 864.869 367.972ZM883.121 358.641H882.975C882.564 358.543 882.164 358.475 881.773 358.436C881.393 358.387 880.938 358.362 880.411 358.362C879.562 358.362 878.741 358.553 877.95 358.934C877.159 359.305 876.397 359.788 875.665 360.384V372H872.911V355.638H875.665V358.055C876.759 357.176 877.721 356.556 878.551 356.194C879.391 355.823 880.245 355.638 881.114 355.638C881.593 355.638 881.939 355.652 882.154 355.682C882.369 355.701 882.691 355.745 883.121 355.813V358.641ZM894.386 363.782H885.245V361.131H894.386V363.782ZM913.282 363.826C913.282 366.492 912.599 368.597 911.231 370.14C909.864 371.683 908.033 372.454 905.738 372.454C903.424 372.454 901.583 371.683 900.216 370.14C898.858 368.597 898.18 366.492 898.18 363.826C898.18 361.16 898.858 359.056 900.216 357.513C901.583 355.96 903.424 355.184 905.738 355.184C908.033 355.184 909.864 355.96 911.231 357.513C912.599 359.056 913.282 361.16 913.282 363.826ZM910.44 363.826C910.44 361.707 910.025 360.135 909.195 359.109C908.365 358.074 907.213 357.557 905.738 357.557C904.244 357.557 903.082 358.074 902.252 359.109C901.432 360.135 901.021 361.707 901.021 363.826C901.021 365.877 901.437 367.435 902.267 368.499C903.097 369.554 904.254 370.081 905.738 370.081C907.203 370.081 908.351 369.559 909.181 368.514C910.021 367.459 910.44 365.896 910.44 363.826ZM920.343 372H917.589V349.207H920.343V372ZM939.063 372H936.31V370.286C935.519 370.97 934.693 371.502 933.834 371.883C932.975 372.264 932.042 372.454 931.036 372.454C929.083 372.454 927.53 371.702 926.378 370.198C925.235 368.694 924.664 366.609 924.664 363.943C924.664 362.557 924.859 361.321 925.25 360.237C925.65 359.153 926.188 358.23 926.861 357.469C927.525 356.727 928.297 356.16 929.176 355.77C930.064 355.379 930.982 355.184 931.93 355.184C932.789 355.184 933.551 355.276 934.215 355.462C934.879 355.638 935.577 355.916 936.31 356.297V349.207H939.063V372ZM936.31 367.972V358.582C935.567 358.25 934.903 358.021 934.317 357.894C933.731 357.767 933.092 357.703 932.398 357.703C930.855 357.703 929.654 358.24 928.795 359.314C927.936 360.389 927.506 361.912 927.506 363.885C927.506 365.828 927.838 367.308 928.502 368.323C929.166 369.329 930.23 369.832 931.695 369.832C932.477 369.832 933.268 369.661 934.068 369.319C934.869 368.968 935.616 368.519 936.31 367.972ZM968.712 372H965.958V362.684C965.958 361.932 965.914 361.229 965.826 360.574C965.738 359.91 965.577 359.393 965.343 359.021C965.099 358.611 964.747 358.309 964.288 358.113C963.829 357.908 963.233 357.806 962.501 357.806C961.749 357.806 960.963 357.991 960.143 358.362C959.322 358.733 958.536 359.207 957.784 359.783V372H955.03V355.638H957.784V357.454C958.644 356.741 959.532 356.185 960.45 355.784C961.368 355.384 962.311 355.184 963.277 355.184C965.045 355.184 966.393 355.716 967.32 356.78C968.248 357.845 968.712 359.378 968.712 361.38V372ZM987.96 363.826C987.96 366.492 987.276 368.597 985.909 370.14C984.542 371.683 982.711 372.454 980.416 372.454C978.102 372.454 976.261 371.683 974.894 370.14C973.536 368.597 972.857 366.492 972.857 363.826C972.857 361.16 973.536 359.056 974.894 357.513C976.261 355.96 978.102 355.184 980.416 355.184C982.711 355.184 984.542 355.96 985.909 357.513C987.276 359.056 987.96 361.16 987.96 363.826ZM985.118 363.826C985.118 361.707 984.703 360.135 983.873 359.109C983.043 358.074 981.891 357.557 980.416 357.557C978.922 357.557 977.76 358.074 976.93 359.109C976.109 360.135 975.699 361.707 975.699 363.826C975.699 365.877 976.114 367.435 976.944 368.499C977.774 369.554 978.932 370.081 980.416 370.081C981.881 370.081 983.028 369.559 983.858 368.514C984.698 367.459 985.118 365.896 985.118 363.826ZM1005.92 372H1003.17V362.684C1003.17 361.932 1003.12 361.229 1003.03 360.574C1002.95 359.91 1002.78 359.393 1002.55 359.021C1002.31 358.611 1001.95 358.309 1001.5 358.113C1001.04 357.908 1000.44 357.806 999.708 357.806C998.956 357.806 998.17 357.991 997.35 358.362C996.529 358.733 995.743 359.207 994.991 359.783V372H992.237V355.638H994.991V357.454C995.851 356.741 996.739 356.185 997.657 355.784C998.575 355.384 999.518 355.184 1000.48 355.184C1002.25 355.184 1003.6 355.716 1004.53 356.78C1005.46 357.845 1005.92 359.378 1005.92 361.38V372ZM1024.9 372H1022.15V362.684C1022.15 361.932 1022.11 361.229 1022.02 360.574C1021.93 359.91 1021.77 359.393 1021.53 359.021C1021.29 358.611 1020.94 358.309 1020.48 358.113C1020.02 357.908 1019.42 357.806 1018.69 357.806C1017.94 357.806 1017.15 357.991 1016.33 358.362C1015.51 358.733 1014.73 359.207 1013.98 359.783V372H1011.22V355.638H1013.98V357.454C1014.83 356.741 1015.72 356.185 1016.64 355.784C1017.56 355.384 1018.5 355.184 1019.47 355.184C1021.24 355.184 1022.58 355.716 1023.51 356.78C1024.44 357.845 1024.9 359.378 1024.9 361.38V372ZM1042.92 372H1040.18V370.257C1039.94 370.423 1039.61 370.657 1039.19 370.96C1038.78 371.253 1038.38 371.487 1037.98 371.663C1037.53 371.888 1037 372.073 1036.4 372.22C1035.81 372.376 1035.11 372.454 1034.31 372.454C1032.83 372.454 1031.58 371.966 1030.56 370.989C1029.53 370.013 1029.02 368.768 1029.02 367.254C1029.02 366.014 1029.28 365.013 1029.81 364.251C1030.35 363.479 1031.11 362.874 1032.1 362.435C1033.09 361.995 1034.29 361.697 1035.68 361.541C1037.08 361.385 1038.58 361.268 1040.18 361.189V360.765C1040.18 360.14 1040.07 359.622 1039.84 359.212C1039.63 358.802 1039.32 358.479 1038.91 358.245C1038.52 358.021 1038.05 357.869 1037.5 357.791C1036.95 357.713 1036.38 357.674 1035.79 357.674C1035.06 357.674 1034.26 357.771 1033.37 357.967C1032.48 358.152 1031.56 358.426 1030.62 358.787H1030.47V355.989C1031.01 355.843 1031.78 355.682 1032.8 355.506C1033.81 355.33 1034.82 355.242 1035.8 355.242C1036.95 355.242 1037.96 355.34 1038.8 355.535C1039.66 355.721 1040.41 356.043 1041.03 356.502C1041.65 356.951 1042.12 357.532 1042.44 358.245C1042.76 358.958 1042.92 359.842 1042.92 360.896V372ZM1040.18 367.972V363.416C1039.34 363.465 1038.35 363.538 1037.21 363.636C1036.08 363.733 1035.18 363.875 1034.51 364.061C1033.72 364.285 1033.08 364.637 1032.59 365.115C1032.11 365.584 1031.86 366.233 1031.86 367.063C1031.86 368.001 1032.14 368.709 1032.71 369.188C1033.28 369.656 1034.14 369.891 1035.3 369.891C1036.27 369.891 1037.15 369.705 1037.96 369.334C1038.76 368.953 1039.5 368.499 1040.18 367.972ZM1052.72 372H1049.22V367.825H1052.72V372ZM243.189 394.693C244.078 395.67 244.757 396.866 245.226 398.282C245.704 399.698 245.943 401.305 245.943 403.102C245.943 404.898 245.699 406.51 245.211 407.936C244.732 409.352 244.059 410.533 243.189 411.48C242.291 412.467 241.227 413.209 239.996 413.707C238.775 414.205 237.379 414.454 235.807 414.454C234.273 414.454 232.877 414.2 231.617 413.692C230.367 413.185 229.303 412.447 228.424 411.48C227.545 410.514 226.866 409.327 226.388 407.921C225.919 406.515 225.685 404.908 225.685 403.102C225.685 401.324 225.919 399.732 226.388 398.326C226.856 396.91 227.54 395.699 228.438 394.693C229.298 393.736 230.362 393.004 231.632 392.496C232.911 391.988 234.303 391.734 235.807 391.734C237.369 391.734 238.771 391.993 240.011 392.511C241.261 393.019 242.32 393.746 243.189 394.693ZM242.926 403.102C242.926 400.27 242.291 398.087 241.021 396.554C239.752 395.011 238.019 394.239 235.821 394.239C233.604 394.239 231.861 395.011 230.592 396.554C229.332 398.087 228.702 400.27 228.702 403.102C228.702 405.963 229.347 408.155 230.636 409.679C231.925 411.192 233.653 411.949 235.821 411.949C237.989 411.949 239.713 411.192 240.992 409.679C242.281 408.155 242.926 405.963 242.926 403.102ZM264.474 397.638L257.853 414H255.084L248.507 397.638H251.495L256.563 410.66L261.588 397.638H264.474ZM281.773 406.104H269.718C269.718 407.11 269.869 407.989 270.172 408.741C270.475 409.483 270.89 410.094 271.417 410.572C271.925 411.041 272.525 411.393 273.219 411.627C273.922 411.861 274.693 411.979 275.533 411.979C276.646 411.979 277.765 411.759 278.888 411.319C280.021 410.87 280.826 410.431 281.305 410.001H281.451V413.004C280.523 413.395 279.576 413.722 278.609 413.985C277.643 414.249 276.627 414.381 275.562 414.381C272.848 414.381 270.729 413.648 269.205 412.184C267.682 410.709 266.92 408.619 266.92 405.914C266.92 403.238 267.647 401.114 269.103 399.542C270.567 397.97 272.491 397.184 274.874 397.184C277.081 397.184 278.78 397.828 279.972 399.117C281.173 400.406 281.773 402.237 281.773 404.61V406.104ZM279.093 403.995C279.083 402.55 278.717 401.432 277.994 400.641C277.281 399.85 276.192 399.454 274.728 399.454C273.253 399.454 272.076 399.889 271.197 400.758C270.328 401.627 269.835 402.706 269.718 403.995H279.093ZM296.158 400.641H296.012C295.602 400.543 295.201 400.475 294.811 400.436C294.43 400.387 293.976 400.362 293.448 400.362C292.599 400.362 291.778 400.553 290.987 400.934C290.196 401.305 289.435 401.788 288.702 402.384V414H285.948V397.638H288.702V400.055C289.796 399.176 290.758 398.556 291.588 398.194C292.428 397.823 293.282 397.638 294.151 397.638C294.63 397.638 294.977 397.652 295.191 397.682C295.406 397.701 295.729 397.745 296.158 397.813V400.641ZM322.013 414H319.273V412.257C319.029 412.423 318.697 412.657 318.277 412.96C317.867 413.253 317.467 413.487 317.076 413.663C316.617 413.888 316.09 414.073 315.494 414.22C314.898 414.376 314.2 414.454 313.399 414.454C311.925 414.454 310.675 413.966 309.649 412.989C308.624 412.013 308.111 410.768 308.111 409.254C308.111 408.014 308.375 407.013 308.902 406.251C309.439 405.479 310.201 404.874 311.188 404.435C312.184 403.995 313.38 403.697 314.776 403.541C316.173 403.385 317.672 403.268 319.273 403.189V402.765C319.273 402.14 319.161 401.622 318.937 401.212C318.722 400.802 318.409 400.479 317.999 400.245C317.608 400.021 317.14 399.869 316.593 399.791C316.046 399.713 315.475 399.674 314.879 399.674C314.156 399.674 313.351 399.771 312.462 399.967C311.573 400.152 310.655 400.426 309.708 400.787H309.562V397.989C310.099 397.843 310.875 397.682 311.891 397.506C312.906 397.33 313.907 397.242 314.894 397.242C316.046 397.242 317.047 397.34 317.896 397.535C318.756 397.721 319.498 398.043 320.123 398.502C320.738 398.951 321.207 399.532 321.529 400.245C321.852 400.958 322.013 401.842 322.013 402.896V414ZM319.273 409.972V405.416C318.434 405.465 317.442 405.538 316.3 405.636C315.167 405.733 314.269 405.875 313.604 406.061C312.813 406.285 312.174 406.637 311.686 407.115C311.197 407.584 310.953 408.233 310.953 409.063C310.953 410.001 311.236 410.709 311.803 411.188C312.369 411.656 313.233 411.891 314.396 411.891C315.362 411.891 316.246 411.705 317.047 411.334C317.848 410.953 318.59 410.499 319.273 409.972ZM340.997 414H338.243V404.684C338.243 403.932 338.199 403.229 338.111 402.574C338.023 401.91 337.862 401.393 337.628 401.021C337.384 400.611 337.032 400.309 336.573 400.113C336.114 399.908 335.519 399.806 334.786 399.806C334.034 399.806 333.248 399.991 332.428 400.362C331.607 400.733 330.821 401.207 330.069 401.783V414H327.315V397.638H330.069V399.454C330.929 398.741 331.817 398.185 332.735 397.784C333.653 397.384 334.596 397.184 335.562 397.184C337.33 397.184 338.678 397.716 339.605 398.78C340.533 399.845 340.997 401.378 340.997 403.38V414ZM359.981 414H357.228V404.684C357.228 403.932 357.184 403.229 357.096 402.574C357.008 401.91 356.847 401.393 356.612 401.021C356.368 400.611 356.017 400.309 355.558 400.113C355.099 399.908 354.503 399.806 353.771 399.806C353.019 399.806 352.232 399.991 351.412 400.362C350.592 400.733 349.806 401.207 349.054 401.783V414H346.3V397.638H349.054V399.454C349.913 398.741 350.802 398.185 351.72 397.784C352.638 397.384 353.58 397.184 354.547 397.184C356.314 397.184 357.662 397.716 358.59 398.78C359.518 399.845 359.981 401.378 359.981 403.38V414ZM378.849 414H376.095V412.184C375.167 412.916 374.278 413.478 373.429 413.868C372.579 414.259 371.642 414.454 370.616 414.454C368.897 414.454 367.56 413.932 366.603 412.887C365.646 411.832 365.167 410.289 365.167 408.258V397.638H367.921V406.954C367.921 407.784 367.96 408.497 368.038 409.093C368.116 409.679 368.282 410.182 368.536 410.602C368.8 411.031 369.142 411.344 369.562 411.539C369.981 411.734 370.592 411.832 371.393 411.832C372.105 411.832 372.882 411.646 373.722 411.275C374.571 410.904 375.362 410.431 376.095 409.854V397.638H378.849V414ZM396.983 414H394.244V412.257C394 412.423 393.668 412.657 393.248 412.96C392.838 413.253 392.438 413.487 392.047 413.663C391.588 413.888 391.061 414.073 390.465 414.22C389.869 414.376 389.171 414.454 388.37 414.454C386.896 414.454 385.646 413.966 384.62 412.989C383.595 412.013 383.082 410.768 383.082 409.254C383.082 408.014 383.346 407.013 383.873 406.251C384.41 405.479 385.172 404.874 386.158 404.435C387.154 403.995 388.351 403.697 389.747 403.541C391.144 403.385 392.643 403.268 394.244 403.189V402.765C394.244 402.14 394.132 401.622 393.907 401.212C393.692 400.802 393.38 400.479 392.97 400.245C392.579 400.021 392.11 399.869 391.563 399.791C391.017 399.713 390.445 399.674 389.85 399.674C389.127 399.674 388.321 399.771 387.433 399.967C386.544 400.152 385.626 400.426 384.679 400.787H384.532V397.989C385.069 397.843 385.846 397.682 386.861 397.506C387.877 397.33 388.878 397.242 389.864 397.242C391.017 397.242 392.018 397.34 392.867 397.535C393.727 397.721 394.469 398.043 395.094 398.502C395.709 398.951 396.178 399.532 396.5 400.245C396.822 400.958 396.983 401.842 396.983 402.896V414ZM394.244 409.972V405.416C393.404 405.465 392.413 405.538 391.271 405.636C390.138 405.733 389.239 405.875 388.575 406.061C387.784 406.285 387.145 406.637 386.656 407.115C386.168 407.584 385.924 408.233 385.924 409.063C385.924 410.001 386.207 410.709 386.773 411.188C387.34 411.656 388.204 411.891 389.366 411.891C390.333 411.891 391.217 411.705 392.018 411.334C392.818 410.953 393.561 410.499 394.244 409.972ZM405.069 414H402.315V391.207H405.069V414ZM435.465 405.694C435.465 407.062 435.27 408.292 434.879 409.386C434.498 410.479 433.98 411.397 433.326 412.14C432.633 412.911 431.871 413.492 431.041 413.883C430.211 414.264 429.298 414.454 428.302 414.454C427.374 414.454 426.563 414.342 425.87 414.117C425.177 413.902 424.493 413.609 423.819 413.238L423.644 414H421.065V391.207H423.819V399.352C424.591 398.717 425.411 398.199 426.28 397.799C427.149 397.389 428.126 397.184 429.21 397.184C431.144 397.184 432.667 397.926 433.78 399.41C434.903 400.895 435.465 402.989 435.465 405.694ZM432.623 405.768C432.623 403.814 432.301 402.335 431.656 401.329C431.012 400.313 429.972 399.806 428.536 399.806C427.735 399.806 426.925 399.981 426.104 400.333C425.284 400.675 424.522 401.119 423.819 401.666V411.041C424.601 411.393 425.27 411.637 425.826 411.773C426.393 411.91 427.032 411.979 427.745 411.979C429.269 411.979 430.46 411.48 431.319 410.484C432.188 409.479 432.623 407.906 432.623 405.768ZM453.321 414H450.567V412.184C449.64 412.916 448.751 413.478 447.901 413.868C447.052 414.259 446.114 414.454 445.089 414.454C443.37 414.454 442.032 413.932 441.075 412.887C440.118 411.832 439.64 410.289 439.64 408.258V397.638H442.394V406.954C442.394 407.784 442.433 408.497 442.511 409.093C442.589 409.679 442.755 410.182 443.009 410.602C443.272 411.031 443.614 411.344 444.034 411.539C444.454 411.734 445.064 411.832 445.865 411.832C446.578 411.832 447.354 411.646 448.194 411.275C449.044 410.904 449.835 410.431 450.567 409.854V397.638H453.321V414ZM472.013 414H469.259V412.286C468.468 412.97 467.643 413.502 466.783 413.883C465.924 414.264 464.991 414.454 463.985 414.454C462.032 414.454 460.479 413.702 459.327 412.198C458.185 410.694 457.613 408.609 457.613 405.943C457.613 404.557 457.809 403.321 458.199 402.237C458.6 401.153 459.137 400.23 459.811 399.469C460.475 398.727 461.246 398.16 462.125 397.77C463.014 397.379 463.932 397.184 464.879 397.184C465.738 397.184 466.5 397.276 467.164 397.462C467.828 397.638 468.526 397.916 469.259 398.297V391.207H472.013V414ZM469.259 409.972V400.582C468.517 400.25 467.853 400.021 467.267 399.894C466.681 399.767 466.041 399.703 465.348 399.703C463.805 399.703 462.604 400.24 461.744 401.314C460.885 402.389 460.455 403.912 460.455 405.885C460.455 407.828 460.787 409.308 461.451 410.323C462.115 411.329 463.18 411.832 464.645 411.832C465.426 411.832 466.217 411.661 467.018 411.319C467.818 410.968 468.565 410.519 469.259 409.972ZM490.704 412.14C490.704 414.913 490.074 416.949 488.814 418.248C487.555 419.547 485.616 420.196 482.999 420.196C482.13 420.196 481.28 420.133 480.45 420.006C479.63 419.889 478.819 419.718 478.019 419.493V416.681H478.165C478.614 416.856 479.327 417.071 480.304 417.325C481.28 417.589 482.257 417.721 483.233 417.721C484.171 417.721 484.947 417.608 485.562 417.384C486.178 417.159 486.656 416.847 486.998 416.446C487.34 416.065 487.584 415.606 487.73 415.069C487.877 414.532 487.95 413.932 487.95 413.268V411.773C487.12 412.438 486.324 412.936 485.562 413.268C484.811 413.59 483.849 413.751 482.677 413.751C480.724 413.751 479.171 413.048 478.019 411.642C476.876 410.226 476.305 408.233 476.305 405.665C476.305 404.259 476.5 403.048 476.891 402.032C477.291 401.007 477.833 400.123 478.517 399.381C479.151 398.688 479.923 398.15 480.831 397.77C481.739 397.379 482.643 397.184 483.541 397.184C484.488 397.184 485.279 397.281 485.914 397.477C486.559 397.662 487.237 397.95 487.95 398.341L488.126 397.638H490.704V412.14ZM487.95 409.503V400.582C487.218 400.25 486.534 400.016 485.899 399.879C485.274 399.732 484.649 399.659 484.024 399.659C482.511 399.659 481.319 400.167 480.45 401.183C479.581 402.198 479.146 403.673 479.146 405.606C479.146 407.442 479.469 408.834 480.113 409.781C480.758 410.729 481.827 411.202 483.321 411.202C484.122 411.202 484.923 411.051 485.724 410.748C486.534 410.436 487.276 410.021 487.95 409.503ZM509.82 406.104H497.765C497.765 407.11 497.916 407.989 498.219 408.741C498.521 409.483 498.937 410.094 499.464 410.572C499.972 411.041 500.572 411.393 501.266 411.627C501.969 411.861 502.74 411.979 503.58 411.979C504.693 411.979 505.812 411.759 506.935 411.319C508.067 410.87 508.873 410.431 509.352 410.001H509.498V413.004C508.57 413.395 507.623 413.722 506.656 413.985C505.689 414.249 504.674 414.381 503.609 414.381C500.895 414.381 498.775 413.648 497.252 412.184C495.729 410.709 494.967 408.619 494.967 405.914C494.967 403.238 495.694 401.114 497.149 399.542C498.614 397.97 500.538 397.184 502.921 397.184C505.128 397.184 506.827 397.828 508.019 399.117C509.22 400.406 509.82 402.237 509.82 404.61V406.104ZM507.14 403.995C507.13 402.55 506.764 401.432 506.041 400.641C505.328 399.85 504.239 399.454 502.774 399.454C501.3 399.454 500.123 399.889 499.244 400.758C498.375 401.627 497.882 402.706 497.765 403.995H507.14ZM522.491 413.854C521.974 413.99 521.407 414.103 520.792 414.19C520.187 414.278 519.645 414.322 519.166 414.322C517.496 414.322 516.227 413.873 515.357 412.975C514.488 412.076 514.054 410.636 514.054 408.653V399.952H512.193V397.638H514.054V392.936H516.808V397.638H522.491V399.952H516.808V407.408C516.808 408.268 516.827 408.941 516.866 409.43C516.905 409.908 517.042 410.357 517.276 410.777C517.491 411.168 517.784 411.456 518.155 411.642C518.536 411.817 519.112 411.905 519.884 411.905C520.333 411.905 520.802 411.842 521.29 411.715C521.778 411.578 522.13 411.466 522.345 411.378H522.491V413.854ZM546.588 400.641H546.441C546.031 400.543 545.631 400.475 545.24 400.436C544.859 400.387 544.405 400.362 543.878 400.362C543.028 400.362 542.208 400.553 541.417 400.934C540.626 401.305 539.864 401.788 539.132 402.384V414H536.378V397.638H539.132V400.055C540.226 399.176 541.188 398.556 542.018 398.194C542.857 397.823 543.712 397.638 544.581 397.638C545.06 397.638 545.406 397.652 545.621 397.682C545.836 397.701 546.158 397.745 546.588 397.813V400.641ZM562.877 406.104H550.821C550.821 407.11 550.973 407.989 551.275 408.741C551.578 409.483 551.993 410.094 552.521 410.572C553.028 411.041 553.629 411.393 554.322 411.627C555.025 411.861 555.797 411.979 556.637 411.979C557.75 411.979 558.868 411.759 559.991 411.319C561.124 410.87 561.93 410.431 562.408 410.001H562.555V413.004C561.627 413.395 560.68 413.722 559.713 413.985C558.746 414.249 557.73 414.381 556.666 414.381C553.951 414.381 551.832 413.648 550.309 412.184C548.785 410.709 548.023 408.619 548.023 405.914C548.023 403.238 548.751 401.114 550.206 399.542C551.671 397.97 553.595 397.184 555.978 397.184C558.185 397.184 559.884 397.828 561.075 399.117C562.276 400.406 562.877 402.237 562.877 404.61V406.104ZM560.196 403.995C560.187 402.55 559.82 401.432 559.098 400.641C558.385 399.85 557.296 399.454 555.831 399.454C554.356 399.454 553.18 399.889 552.301 400.758C551.432 401.627 550.938 402.706 550.821 403.995H560.196ZM581.451 405.621C581.451 406.949 581.261 408.165 580.88 409.269C580.499 410.362 579.962 411.29 579.269 412.052C578.624 412.774 577.862 413.336 576.983 413.736C576.114 414.127 575.191 414.322 574.215 414.322C573.365 414.322 572.594 414.229 571.9 414.044C571.217 413.858 570.519 413.57 569.806 413.18V420.035H567.052V397.638H569.806V399.352C570.538 398.736 571.358 398.224 572.267 397.813C573.185 397.394 574.161 397.184 575.196 397.184C577.169 397.184 578.702 397.931 579.796 399.425C580.899 400.909 581.451 402.975 581.451 405.621ZM578.609 405.694C578.609 403.722 578.272 402.247 577.599 401.271C576.925 400.294 575.89 399.806 574.493 399.806C573.702 399.806 572.906 399.977 572.105 400.318C571.305 400.66 570.538 401.109 569.806 401.666V410.938C570.587 411.29 571.256 411.529 571.812 411.656C572.379 411.783 573.019 411.847 573.731 411.847C575.265 411.847 576.461 411.329 577.32 410.294C578.18 409.259 578.609 407.726 578.609 405.694ZM599.688 405.826C599.688 408.492 599.005 410.597 597.638 412.14C596.271 413.683 594.439 414.454 592.145 414.454C589.83 414.454 587.989 413.683 586.622 412.14C585.265 410.597 584.586 408.492 584.586 405.826C584.586 403.16 585.265 401.056 586.622 399.513C587.989 397.96 589.83 397.184 592.145 397.184C594.439 397.184 596.271 397.96 597.638 399.513C599.005 401.056 599.688 403.16 599.688 405.826ZM596.847 405.826C596.847 403.707 596.432 402.135 595.602 401.109C594.771 400.074 593.619 399.557 592.145 399.557C590.65 399.557 589.488 400.074 588.658 401.109C587.838 402.135 587.428 403.707 587.428 405.826C587.428 407.877 587.843 409.435 588.673 410.499C589.503 411.554 590.66 412.081 592.145 412.081C593.609 412.081 594.757 411.559 595.587 410.514C596.427 409.459 596.847 407.896 596.847 405.826ZM614.176 400.641H614.029C613.619 400.543 613.219 400.475 612.828 400.436C612.447 400.387 611.993 400.362 611.466 400.362C610.616 400.362 609.796 400.553 609.005 400.934C608.214 401.305 607.452 401.788 606.72 402.384V414H603.966V397.638H606.72V400.055C607.813 399.176 608.775 398.556 609.605 398.194C610.445 397.823 611.3 397.638 612.169 397.638C612.647 397.638 612.994 397.652 613.209 397.682C613.424 397.701 613.746 397.745 614.176 397.813V400.641ZM625.265 413.854C624.747 413.99 624.181 414.103 623.565 414.19C622.96 414.278 622.418 414.322 621.939 414.322C620.27 414.322 619 413.873 618.131 412.975C617.262 412.076 616.827 410.636 616.827 408.653V399.952H614.967V397.638H616.827V392.936H619.581V397.638H625.265V399.952H619.581V407.408C619.581 408.268 619.601 408.941 619.64 409.43C619.679 409.908 619.815 410.357 620.05 410.777C620.265 411.168 620.558 411.456 620.929 411.642C621.31 411.817 621.886 411.905 622.657 411.905C623.106 411.905 623.575 411.842 624.063 411.715C624.552 411.578 624.903 411.466 625.118 411.378H625.265V413.854ZM640.294 409.283C640.294 410.777 639.674 412.003 638.434 412.96C637.203 413.917 635.519 414.396 633.38 414.396C632.169 414.396 631.056 414.254 630.04 413.971C629.034 413.678 628.189 413.36 627.506 413.019V409.928H627.652C628.521 410.582 629.488 411.104 630.553 411.495C631.617 411.876 632.638 412.066 633.614 412.066C634.825 412.066 635.772 411.871 636.456 411.48C637.14 411.09 637.481 410.475 637.481 409.635C637.481 408.99 637.296 408.502 636.925 408.17C636.554 407.838 635.841 407.555 634.786 407.32C634.396 407.232 633.883 407.13 633.248 407.013C632.623 406.896 632.052 406.769 631.534 406.632C630.099 406.251 629.078 405.694 628.473 404.962C627.877 404.22 627.579 403.312 627.579 402.237C627.579 401.563 627.716 400.929 627.989 400.333C628.272 399.737 628.697 399.205 629.264 398.736C629.811 398.277 630.504 397.916 631.344 397.652C632.193 397.379 633.141 397.242 634.186 397.242C635.162 397.242 636.148 397.364 637.145 397.608C638.15 397.843 638.985 398.131 639.649 398.473V401.417H639.503C638.8 400.899 637.945 400.465 636.939 400.113C635.934 399.752 634.947 399.571 633.98 399.571C632.975 399.571 632.125 399.767 631.432 400.157C630.738 400.538 630.392 401.109 630.392 401.871C630.392 402.545 630.602 403.053 631.021 403.395C631.432 403.736 632.096 404.015 633.014 404.229C633.521 404.347 634.088 404.464 634.713 404.581C635.348 404.698 635.875 404.806 636.295 404.903C637.574 405.196 638.561 405.699 639.254 406.412C639.947 407.135 640.294 408.092 640.294 409.283ZM675.377 397.638L671.114 414H668.565L664.361 401.388L660.187 414H657.652L653.346 397.638H656.217L659.22 410.309L663.307 397.638H665.577L669.767 410.309L672.608 397.638H675.377ZM682.306 394.898H679.2V392.042H682.306V394.898ZM682.13 414H679.376V397.638H682.13V414ZM696.075 413.854C695.558 413.99 694.991 414.103 694.376 414.19C693.771 414.278 693.229 414.322 692.75 414.322C691.08 414.322 689.811 413.873 688.941 412.975C688.072 412.076 687.638 410.636 687.638 408.653V399.952H685.777V397.638H687.638V392.936H690.392V397.638H696.075V399.952H690.392V407.408C690.392 408.268 690.411 408.941 690.45 409.43C690.489 409.908 690.626 410.357 690.86 410.777C691.075 411.168 691.368 411.456 691.739 411.642C692.12 411.817 692.696 411.905 693.468 411.905C693.917 411.905 694.386 411.842 694.874 411.715C695.362 411.578 695.714 411.466 695.929 411.378H696.075V413.854ZM713.097 414H710.343V404.684C710.343 403.932 710.299 403.229 710.211 402.574C710.123 401.91 709.962 401.393 709.728 401.021C709.483 400.611 709.132 400.309 708.673 400.113C708.214 399.908 707.618 399.806 706.886 399.806C706.134 399.806 705.348 399.991 704.527 400.362C703.707 400.733 702.921 401.207 702.169 401.783V414H699.415V391.207H702.169V399.454C703.028 398.741 703.917 398.185 704.835 397.784C705.753 397.384 706.695 397.184 707.662 397.184C709.43 397.184 710.777 397.716 711.705 398.78C712.633 399.845 713.097 401.378 713.097 403.38V414ZM743.097 397.638L733.546 420.035H730.602L733.648 413.209L727.13 397.638H730.118L735.143 409.767L740.211 397.638H743.097ZM760.646 405.826C760.646 408.492 759.962 410.597 758.595 412.14C757.228 413.683 755.396 414.454 753.102 414.454C750.787 414.454 748.946 413.683 747.579 412.14C746.222 410.597 745.543 408.492 745.543 405.826C745.543 403.16 746.222 401.056 747.579 399.513C748.946 397.96 750.787 397.184 753.102 397.184C755.396 397.184 757.228 397.96 758.595 399.513C759.962 401.056 760.646 403.16 760.646 405.826ZM757.804 405.826C757.804 403.707 757.389 402.135 756.559 401.109C755.729 400.074 754.576 399.557 753.102 399.557C751.607 399.557 750.445 400.074 749.615 401.109C748.795 402.135 748.385 403.707 748.385 405.826C748.385 407.877 748.8 409.435 749.63 410.499C750.46 411.554 751.617 412.081 753.102 412.081C754.566 412.081 755.714 411.559 756.544 410.514C757.384 409.459 757.804 407.896 757.804 405.826ZM778.487 414H775.733V412.184C774.806 412.916 773.917 413.478 773.067 413.868C772.218 414.259 771.28 414.454 770.255 414.454C768.536 414.454 767.198 413.932 766.241 412.887C765.284 411.832 764.806 410.289 764.806 408.258V397.638H767.56V406.954C767.56 407.784 767.599 408.497 767.677 409.093C767.755 409.679 767.921 410.182 768.175 410.602C768.438 411.031 768.78 411.344 769.2 411.539C769.62 411.734 770.23 411.832 771.031 411.832C771.744 411.832 772.521 411.646 773.36 411.275C774.21 410.904 775.001 410.431 775.733 409.854V397.638H778.487V414ZM794.117 400.641H793.971C793.561 400.543 793.16 400.475 792.77 400.436C792.389 400.387 791.935 400.362 791.407 400.362C790.558 400.362 789.737 400.553 788.946 400.934C788.155 401.305 787.394 401.788 786.661 402.384V414H783.907V397.638H786.661V400.055C787.755 399.176 788.717 398.556 789.547 398.194C790.387 397.823 791.241 397.638 792.11 397.638C792.589 397.638 792.936 397.652 793.15 397.682C793.365 397.701 793.688 397.745 794.117 397.813V400.641ZM819.356 412.975C818.438 413.414 817.564 413.756 816.734 414C815.914 414.244 815.04 414.366 814.112 414.366C812.931 414.366 811.847 414.195 810.86 413.854C809.874 413.502 809.029 412.975 808.326 412.271C807.613 411.568 807.062 410.68 806.671 409.605C806.28 408.531 806.085 407.276 806.085 405.841C806.085 403.165 806.817 401.065 808.282 399.542C809.757 398.019 811.7 397.257 814.112 397.257C815.05 397.257 815.968 397.389 816.866 397.652C817.774 397.916 818.604 398.238 819.356 398.619V401.681H819.21C818.37 401.026 817.501 400.523 816.603 400.172C815.714 399.82 814.845 399.645 813.995 399.645C812.433 399.645 811.197 400.172 810.289 401.227C809.391 402.271 808.941 403.81 808.941 405.841C808.941 407.813 809.381 409.332 810.26 410.396C811.148 411.451 812.394 411.979 813.995 411.979C814.552 411.979 815.118 411.905 815.694 411.759C816.271 411.612 816.788 411.422 817.247 411.188C817.647 410.982 818.023 410.768 818.375 410.543C818.727 410.309 819.005 410.108 819.21 409.942H819.356V412.975ZM836.847 405.826C836.847 408.492 836.163 410.597 834.796 412.14C833.429 413.683 831.598 414.454 829.303 414.454C826.988 414.454 825.147 413.683 823.78 412.14C822.423 410.597 821.744 408.492 821.744 405.826C821.744 403.16 822.423 401.056 823.78 399.513C825.147 397.96 826.988 397.184 829.303 397.184C831.598 397.184 833.429 397.96 834.796 399.513C836.163 401.056 836.847 403.16 836.847 405.826ZM834.005 405.826C834.005 403.707 833.59 402.135 832.76 401.109C831.93 400.074 830.777 399.557 829.303 399.557C827.809 399.557 826.646 400.074 825.816 401.109C824.996 402.135 824.586 403.707 824.586 405.826C824.586 407.877 825.001 409.435 825.831 410.499C826.661 411.554 827.818 412.081 829.303 412.081C830.768 412.081 831.915 411.559 832.745 410.514C833.585 409.459 834.005 407.896 834.005 405.826ZM843.907 414H841.153V391.207H843.907V414ZM852.14 414H849.386V391.207H852.14V414ZM871.285 406.104H859.229C859.229 407.11 859.381 407.989 859.684 408.741C859.986 409.483 860.401 410.094 860.929 410.572C861.437 411.041 862.037 411.393 862.73 411.627C863.434 411.861 864.205 411.979 865.045 411.979C866.158 411.979 867.276 411.759 868.399 411.319C869.532 410.87 870.338 410.431 870.816 410.001H870.963V413.004C870.035 413.395 869.088 413.722 868.121 413.985C867.154 414.249 866.139 414.381 865.074 414.381C862.359 414.381 860.24 413.648 858.717 412.184C857.193 410.709 856.432 408.619 856.432 405.914C856.432 403.238 857.159 401.114 858.614 399.542C860.079 397.97 862.003 397.184 864.386 397.184C866.593 397.184 868.292 397.828 869.483 399.117C870.685 400.406 871.285 402.237 871.285 404.61V406.104ZM868.604 403.995C868.595 402.55 868.229 401.432 867.506 400.641C866.793 399.85 865.704 399.454 864.239 399.454C862.765 399.454 861.588 399.889 860.709 400.758C859.84 401.627 859.347 402.706 859.229 403.995H868.604ZM888.175 414H885.436V412.257C885.191 412.423 884.859 412.657 884.439 412.96C884.029 413.253 883.629 413.487 883.238 413.663C882.779 413.888 882.252 414.073 881.656 414.22C881.061 414.376 880.362 414.454 879.562 414.454C878.087 414.454 876.837 413.966 875.812 412.989C874.786 412.013 874.273 410.768 874.273 409.254C874.273 408.014 874.537 407.013 875.064 406.251C875.602 405.479 876.363 404.874 877.35 404.435C878.346 403.995 879.542 403.697 880.938 403.541C882.335 403.385 883.834 403.268 885.436 403.189V402.765C885.436 402.14 885.323 401.622 885.099 401.212C884.884 400.802 884.571 400.479 884.161 400.245C883.771 400.021 883.302 399.869 882.755 399.791C882.208 399.713 881.637 399.674 881.041 399.674C880.318 399.674 879.513 399.771 878.624 399.967C877.735 400.152 876.817 400.426 875.87 400.787H875.724V397.989C876.261 397.843 877.037 397.682 878.053 397.506C879.068 397.33 880.069 397.242 881.056 397.242C882.208 397.242 883.209 397.34 884.059 397.535C884.918 397.721 885.66 398.043 886.285 398.502C886.9 398.951 887.369 399.532 887.691 400.245C888.014 400.958 888.175 401.842 888.175 402.896V414ZM885.436 409.972V405.416C884.596 405.465 883.604 405.538 882.462 405.636C881.329 405.733 880.431 405.875 879.767 406.061C878.976 406.285 878.336 406.637 877.848 407.115C877.359 407.584 877.115 408.233 877.115 409.063C877.115 410.001 877.398 410.709 877.965 411.188C878.531 411.656 879.396 411.891 880.558 411.891C881.524 411.891 882.408 411.705 883.209 411.334C884.01 410.953 884.752 410.499 885.436 409.972ZM906.749 412.14C906.749 414.913 906.119 416.949 904.859 418.248C903.6 419.547 901.661 420.196 899.044 420.196C898.175 420.196 897.325 420.133 896.495 420.006C895.675 419.889 894.864 419.718 894.063 419.493V416.681H894.21C894.659 416.856 895.372 417.071 896.349 417.325C897.325 417.589 898.302 417.721 899.278 417.721C900.216 417.721 900.992 417.608 901.607 417.384C902.223 417.159 902.701 416.847 903.043 416.446C903.385 416.065 903.629 415.606 903.775 415.069C903.922 414.532 903.995 413.932 903.995 413.268V411.773C903.165 412.438 902.369 412.936 901.607 413.268C900.855 413.59 899.894 413.751 898.722 413.751C896.769 413.751 895.216 413.048 894.063 411.642C892.921 410.226 892.35 408.233 892.35 405.665C892.35 404.259 892.545 403.048 892.936 402.032C893.336 401.007 893.878 400.123 894.562 399.381C895.196 398.688 895.968 398.15 896.876 397.77C897.784 397.379 898.688 397.184 899.586 397.184C900.533 397.184 901.324 397.281 901.959 397.477C902.604 397.662 903.282 397.95 903.995 398.341L904.171 397.638H906.749V412.14ZM903.995 409.503V400.582C903.263 400.25 902.579 400.016 901.944 399.879C901.319 399.732 900.694 399.659 900.069 399.659C898.556 399.659 897.364 400.167 896.495 401.183C895.626 402.198 895.191 403.673 895.191 405.606C895.191 407.442 895.514 408.834 896.158 409.781C896.803 410.729 897.872 411.202 899.366 411.202C900.167 411.202 900.968 411.051 901.769 410.748C902.579 410.436 903.321 410.021 903.995 409.503ZM925.733 414H922.979V412.184C922.052 412.916 921.163 413.478 920.313 413.868C919.464 414.259 918.526 414.454 917.501 414.454C915.782 414.454 914.444 413.932 913.487 412.887C912.53 411.832 912.052 410.289 912.052 408.258V397.638H914.806V406.954C914.806 407.784 914.845 408.497 914.923 409.093C915.001 409.679 915.167 410.182 915.421 410.602C915.685 411.031 916.026 411.344 916.446 411.539C916.866 411.734 917.477 411.832 918.277 411.832C918.99 411.832 919.767 411.646 920.606 411.275C921.456 410.904 922.247 410.431 922.979 409.854V397.638H925.733V414ZM944.85 406.104H932.794C932.794 407.11 932.945 407.989 933.248 408.741C933.551 409.483 933.966 410.094 934.493 410.572C935.001 411.041 935.602 411.393 936.295 411.627C936.998 411.861 937.77 411.979 938.609 411.979C939.723 411.979 940.841 411.759 941.964 411.319C943.097 410.87 943.902 410.431 944.381 410.001H944.527V413.004C943.6 413.395 942.652 413.722 941.686 413.985C940.719 414.249 939.703 414.381 938.639 414.381C935.924 414.381 933.805 413.648 932.281 412.184C930.758 410.709 929.996 408.619 929.996 405.914C929.996 403.238 930.724 401.114 932.179 399.542C933.644 397.97 935.567 397.184 937.95 397.184C940.157 397.184 941.856 397.828 943.048 399.117C944.249 400.406 944.85 402.237 944.85 404.61V406.104ZM942.169 403.995C942.159 402.55 941.793 401.432 941.07 400.641C940.357 399.85 939.269 399.454 937.804 399.454C936.329 399.454 935.152 399.889 934.273 400.758C933.404 401.627 932.911 402.706 932.794 403.995H942.169ZM967.789 408.331C967.789 410.245 967.203 411.72 966.031 412.755C964.869 413.79 963.307 414.308 961.344 414.308C960.875 414.308 960.25 414.264 959.469 414.176C958.688 414.098 958.033 414 957.506 413.883V411.173H957.667C958.067 411.31 958.561 411.451 959.146 411.598C959.732 411.744 960.333 411.817 960.948 411.817C961.847 411.817 962.56 411.715 963.087 411.51C963.624 411.305 964.02 411.012 964.273 410.631C964.537 410.24 964.703 409.762 964.771 409.195C964.85 408.629 964.889 407.975 964.889 407.232V394.503H960.274V392.188H967.789V408.331ZM986.92 406.104H974.864C974.864 407.11 975.016 407.989 975.318 408.741C975.621 409.483 976.036 410.094 976.563 410.572C977.071 411.041 977.672 411.393 978.365 411.627C979.068 411.861 979.84 411.979 980.68 411.979C981.793 411.979 982.911 411.759 984.034 411.319C985.167 410.87 985.973 410.431 986.451 410.001H986.598V413.004C985.67 413.395 984.723 413.722 983.756 413.985C982.789 414.249 981.773 414.381 980.709 414.381C977.994 414.381 975.875 413.648 974.352 412.184C972.828 410.709 972.066 408.619 972.066 405.914C972.066 403.238 972.794 401.114 974.249 399.542C975.714 397.97 977.638 397.184 980.021 397.184C982.228 397.184 983.927 397.828 985.118 399.117C986.319 400.406 986.92 402.237 986.92 404.61V406.104ZM984.239 403.995C984.229 402.55 983.863 401.432 983.141 400.641C982.428 399.85 981.339 399.454 979.874 399.454C978.399 399.454 977.223 399.889 976.344 400.758C975.475 401.627 974.981 402.706 974.864 403.995H984.239ZM999.898 393.873H999.752C999.449 393.785 999.054 393.697 998.565 393.609C998.077 393.512 997.647 393.463 997.276 393.463C996.095 393.463 995.235 393.727 994.698 394.254C994.171 394.771 993.907 395.714 993.907 397.081V397.638H998.873V399.952H993.995V414H991.241V399.952H989.381V397.638H991.241V397.096C991.241 395.152 991.725 393.663 992.691 392.628C993.658 391.583 995.055 391.061 996.881 391.061C997.496 391.061 998.048 391.09 998.536 391.148C999.034 391.207 999.488 391.275 999.898 391.354V393.873ZM1010.45 393.873H1010.3C1010 393.785 1009.6 393.697 1009.11 393.609C1008.62 393.512 1008.19 393.463 1007.82 393.463C1006.64 393.463 1005.78 393.727 1005.25 394.254C1004.72 394.771 1004.45 395.714 1004.45 397.081V397.638H1009.42V399.952H1004.54V414H1001.79V399.952H999.928V397.638H1001.79V397.096C1001.79 395.152 1002.27 393.663 1003.24 392.628C1004.21 391.583 1005.6 391.061 1007.43 391.061C1008.04 391.061 1008.59 391.09 1009.08 391.148C1009.58 391.207 1010.04 391.275 1010.45 391.354V393.873ZM1016.69 414H1013.18V409.825H1016.69V414Z" fill="black"/>
</svg>
